<svg width="28" height="29" viewBox="0 0 28 29" fill="none" xmlns="http://www.w3.org/2000/svg">
<g clip-path="url(#clip0_65_3)">
<path d="M14 22.2777C13.539 22.2756 13.0889 22.137 12.7066 21.8794C12.3242 21.6217 12.0268 21.2566 11.8518 20.83C11.6769 20.4035 11.6322 19.9347 11.7234 19.4827C11.8146 19.0308 12.0377 18.616 12.3644 18.2908C12.6911 17.9655 13.1069 17.7443 13.5592 17.6552C14.0116 17.566 14.4802 17.6128 14.9059 17.7897C15.3317 17.9666 15.6955 18.2657 15.9514 18.6492C16.2073 19.0327 16.3439 19.4834 16.3439 19.9444C16.3425 20.5646 16.0947 21.1589 15.6552 21.5965C15.2156 22.034 14.6202 22.2791 14 22.2777Z" fill="#4A779D"/>
<path d="M14 3.61111C16.1536 3.61111 18.2589 4.24973 20.0495 5.44622C21.8402 6.64271 23.2359 8.34332 24.06 10.333C24.8842 12.3227 25.0998 14.5121 24.6797 16.6243C24.2595 18.7366 23.2225 20.6768 21.6996 22.1996C20.1768 23.7224 18.2366 24.7595 16.1243 25.1797C14.0121 25.5998 11.8227 25.3842 9.83301 24.56C7.84332 23.7359 6.14271 22.3402 4.94623 20.5495C3.74974 18.7589 3.11112 16.6536 3.11112 14.5C3.11437 11.6131 4.26263 8.84534 6.30399 6.80399C8.34535 4.76263 11.1131 3.61436 14 3.61111ZM14 0.5C11.2311 0.5 8.52431 1.32109 6.22202 2.85943C3.91974 4.39777 2.12532 6.58427 1.06569 9.14243C0.006066 11.7006 -0.271181 14.5155 0.269012 17.2313C0.809205 19.947 2.14258 22.4416 4.10051 24.3995C6.05845 26.3574 8.55301 27.6908 11.2687 28.231C13.9845 28.7712 16.7994 28.4939 19.3576 27.4343C21.9157 26.3747 24.1022 24.5803 25.6406 22.278C27.1789 19.9757 28 17.2689 28 14.5C28 10.787 26.525 7.22601 23.8995 4.60051C21.274 1.975 17.713 0.5 14 0.5Z" fill="#4A779D"/>
<path d="M15.5555 6.72217H12.4444C12.208 6.7222 11.9748 6.77611 11.7624 6.87978C11.55 6.98345 11.364 7.13417 11.2185 7.32049C11.073 7.5068 10.972 7.72382 10.9229 7.95504C10.8739 8.18627 10.8782 8.42563 10.9355 8.65495L12.4911 14.8772C12.5754 15.2135 12.7696 15.5121 13.043 15.7254C13.3164 15.9387 13.6532 16.0546 14 16.0546C14.3467 16.0546 14.6835 15.9387 14.9569 15.7254C15.2303 15.5121 15.4246 15.2135 15.5089 14.8772L17.0644 8.65495C17.1217 8.42563 17.126 8.18627 17.077 7.95504C17.028 7.72382 16.9269 7.5068 16.7814 7.32049C16.636 7.13417 16.45 6.98345 16.2376 6.87978C16.0252 6.77611 15.7919 6.7222 15.5555 6.72217Z" fill="#4A779D"/>
</g>
<defs>
<clipPath id="clip0_65_3">
<rect width="28" height="28" fill="white" transform="translate(0 0.5)"/>
</clipPath>
</defs>
</svg>
