<svg width="200" height="184" viewBox="0 0 200 184" fill="none" xmlns="http://www.w3.org/2000/svg">
<g clip-path="url(#clip0_37_2)">
<path d="M30.8155 121.097L41.1889 142.274H42.2504L51.328 121.705V135.764C51.328 138.7 51.9136 140.777 53.0703 142.081C54.2269 143.384 56.2108 144 59 144V143.119C58.436 143.065 57.9012 142.848 57.4634 142.496C57.0255 142.144 56.7042 141.673 56.5403 141.142C55.9675 139.407 55.7195 137.585 55.8082 135.764V117H51.2914L42.7994 136.258L33.3924 117H29V142.274H30.8009L30.8155 121.097Z" fill="#40E0D0"/>
<path d="M66.1962 141.746C67.6591 142.568 69.3099 143 70.9891 143C72.6683 143 74.3191 142.568 75.7819 141.746C77.1269 140.922 78.213 139.739 78.9166 138.33C79.63 136.821 80 135.172 80 133.504C80 131.835 79.63 130.187 78.9166 128.678C78.213 127.269 77.1269 126.085 75.7819 125.262C74.3207 124.435 72.6693 124 70.9891 124C69.3089 124 67.6575 124.435 66.1962 125.262C64.8611 126.091 63.7833 127.273 63.0834 128.678C62.37 130.187 62 131.835 62 133.504C62 135.172 62.37 136.821 63.0834 138.33C63.7833 139.734 64.8611 140.917 66.1962 141.746ZM67.7526 127.858C68.5333 126.408 69.6097 125.682 70.9818 125.682C72.354 125.682 73.4352 126.408 74.2255 127.858C75.0075 129.637 75.4112 131.558 75.4112 133.5C75.4112 135.442 75.0075 137.363 74.2255 139.142C73.4401 140.593 72.3564 141.318 70.9818 141.318C69.6072 141.318 68.5308 140.593 67.7526 139.142C66.9851 137.36 66.5893 135.44 66.5893 133.5C66.5893 131.56 66.9851 129.641 67.7526 127.858Z" fill="#40E0D0"/>
<path d="M85.4628 125.457C85.8487 126.386 86.0209 127.398 85.9651 128.411V142H90.2209V128.677C90.2133 128.148 90.176 127.62 90.1093 127.096C90.4803 126.605 90.9594 126.217 91.5047 125.966C92.1428 125.684 92.8292 125.543 93.5209 125.553C94.0787 125.544 94.6299 125.681 95.1256 125.952C95.5637 126.185 95.9455 126.521 96.2419 126.934L98 125.553C97.8463 125.32 97.7132 125.073 97.6023 124.814C97.3834 124.385 97.0699 124.017 96.6884 123.743C95.9654 123.22 95.1006 122.96 94.2256 123.005C93.3015 122.99 92.3853 123.186 91.5395 123.581C90.7995 123.925 90.1201 124.399 89.5302 124.984C89.3072 124.457 88.9173 124.029 88.4279 123.773C87.7837 123.498 87.0915 123.373 86.3977 123.404H83V124.43H83.3698C84.4581 124.489 85.1488 124.807 85.4628 125.457Z" fill="#40E0D0"/>
<path d="M105.39 133.396C104.633 133.802 104.006 134.425 103.584 135.19C103.161 135.955 102.961 136.829 103.007 137.708C102.967 138.456 103.099 139.204 103.392 139.889C103.685 140.574 104.131 141.178 104.694 141.65C105.757 142.385 106.98 142.836 108.254 142.963C109.527 143.09 110.811 142.888 111.99 142.376C112.718 142.039 113.352 141.517 113.832 140.859H114.015L115.329 142.609H118V132.155C118 129.251 117.367 127.167 116.102 125.904C114.837 124.641 113.052 124.002 110.746 124.002C109.566 123.985 108.388 124.097 107.232 124.336C106.43 124.449 105.679 124.805 105.074 125.359C104.679 125.785 104.41 126.32 104.3 126.898C104.177 127.617 104.121 128.346 104.132 129.076H106.051C106.192 128.038 106.691 127.086 107.456 126.397C108.197 125.881 109.08 125.627 109.973 125.671C110.52 125.635 111.067 125.746 111.56 125.994C112.053 126.242 112.475 126.619 112.784 127.087C113.41 128.031 113.719 129.686 113.719 132.038H112.925C109.495 132.038 106.983 132.491 105.39 133.396ZM113.698 138.717C113.358 139.377 112.9 139.963 112.349 140.445C111.793 140.929 111.086 141.187 110.359 141.171C109.966 141.189 109.574 141.119 109.21 140.965C108.846 140.81 108.519 140.576 108.251 140.278C107.673 139.563 107.383 138.645 107.442 137.716C107.442 135.054 109.258 133.72 112.89 133.715H113.698V138.717Z" fill="#40E0D0"/>
<path d="M132.735 136.641L129.374 128.854C128.786 127.307 127.751 125.975 126.406 125.033C125.181 124.32 123.785 123.964 122.373 124.003L121 124.083V124.859C121.359 124.882 121.71 124.978 122.032 125.141C122.354 125.304 122.64 125.531 122.874 125.808C123.59 126.74 124.182 127.764 124.633 128.854L130.861 143H132.012L140 124.387H138.012L132.735 136.641Z" fill="#40E0D0"/>
<path d="M144.823 125.955C145.257 126.852 145.452 127.836 145.389 128.821V142H149.994V128.821C150.027 127.823 149.918 126.825 149.67 125.855C149.51 125.263 149.119 124.75 148.575 124.423C147.884 124.108 147.121 123.965 146.356 124.007H142V125.003H142.566C143.691 125.017 144.446 125.325 144.823 125.955Z" fill="#40E0D0"/>
<path d="M147.271 122.994C147.499 123.006 147.726 122.961 147.94 122.863C148.153 122.764 148.348 122.614 148.514 122.422C148.676 122.222 148.803 121.984 148.887 121.721C148.97 121.458 149.008 121.177 148.999 120.895C149.014 120.136 148.792 119.398 148.377 118.835C148.169 118.557 147.913 118.338 147.629 118.195C147.344 118.051 147.037 117.985 146.73 118.003C146.502 117.988 146.275 118.03 146.061 118.128C145.847 118.225 145.652 118.374 145.487 118.568C145.323 118.766 145.195 119.004 145.111 119.267C145.028 119.53 144.991 119.812 145.002 120.094C144.993 120.859 145.215 121.601 145.624 122.177C145.83 122.458 146.085 122.678 146.37 122.819C146.656 122.961 146.964 123.02 147.271 122.994Z" fill="#40E0D0"/>
<path d="M166.831 140.884H167.02L168.333 142.633H171V132.152C171 129.249 170.361 127.173 169.098 125.903C167.834 124.633 166.052 124.001 163.756 124.001C162.59 123.986 161.425 124.098 160.282 124.335C159.479 124.449 158.727 124.805 158.12 125.359C157.728 125.785 157.462 126.319 157.355 126.897C157.232 127.616 157.176 128.345 157.186 129.075H159.096C159.24 128.038 159.738 127.088 160.499 126.397C161.242 125.88 162.126 125.626 163.019 125.671C163.566 125.633 164.113 125.744 164.605 125.992C165.098 126.241 165.519 126.618 165.827 127.086C166.452 128.03 166.767 129.684 166.767 132.036H165.918C162.483 132.036 159.975 132.489 158.394 133.393C157.636 133.798 157.008 134.42 156.585 135.185C156.161 135.95 155.961 136.825 156.007 137.705C155.967 138.453 156.099 139.201 156.393 139.887C156.687 140.572 157.135 141.175 157.699 141.646C158.758 142.384 159.978 142.837 161.249 142.963C162.52 143.09 163.802 142.887 164.978 142.372C165.709 142.049 166.347 141.537 166.831 140.884ZM161.293 140.267C160.715 139.552 160.426 138.634 160.485 137.705C160.485 135.043 162.301 133.71 165.932 133.706H166.718V138.714C166.379 139.374 165.919 139.961 165.364 140.441C164.809 140.925 164.103 141.183 163.377 141.167C162.988 141.179 162.6 141.106 162.241 140.95C161.881 140.795 161.558 140.562 161.293 140.267Z" fill="#40E0D0"/>
<path d="M20.9592 178.91L12.4644 158H11.0391L0 183.838H1.86716L4.9886 176.597H15.3221L16.2343 178.91C17.0182 180.916 18.0373 182.271 19.2845 182.959C20.5247 183.65 21.9146 184.007 23.3253 183.999C23.8896 184.01 24.4529 183.944 25 183.801V182.9C24.1303 182.818 23.3149 182.43 22.691 181.802C21.9378 180.962 21.3497 179.98 20.9592 178.91ZM5.70125 174.913L10.2338 164.223L14.581 174.913H5.70125Z" fill="#40E0D0"/>
<path d="M48.8261 165.031C47.7664 164.983 46.7093 165.175 45.7309 165.593C44.7524 166.011 43.8767 166.645 43.1667 167.449C42.7159 166.677 42.0463 166.064 41.2464 165.689C40.2754 165.213 39.2077 164.977 38.1304 165.002C37.1357 164.981 36.1478 165.175 35.2319 165.571C34.4635 165.9 33.7554 166.36 33.1377 166.931H32.9855C32.7308 166.412 32.3049 166.001 31.7826 165.771C31.1207 165.496 30.4096 165.368 29.6957 165.394H26V166.421H26.5797C27.6667 166.421 28.3913 166.746 28.7536 167.389C29.1699 168.315 29.3566 169.33 29.2971 170.346V183.941H33.6812V168.543C34.1283 168.09 34.6357 167.705 35.1884 167.397C35.7113 167.097 36.2989 166.935 36.8986 166.924C38.9614 166.924 39.9928 168.691 39.9928 172.224V184H44.3406V172.224C44.4037 171.086 44.2587 169.945 43.913 168.861C44.3247 168.29 44.8605 167.824 45.4783 167.5C46.1097 167.131 46.8231 166.933 47.5507 166.924C49.6232 166.924 50.6522 168.691 50.6522 172.224V184H55V172.224C55 169.666 54.4662 167.828 53.3986 166.709C52.7885 166.127 52.0683 165.678 51.282 165.389C50.4958 165.101 49.6601 164.979 48.8261 165.031Z" fill="#40E0D0"/>
<path d="M70.0708 164.998C68.5418 164.992 67.0387 165.393 65.7157 166.16V162.9C65.7519 161.886 65.6468 160.872 65.4036 159.887C65.2572 159.285 64.8823 158.764 64.3584 158.434C63.697 158.115 62.9654 157.967 62.2317 158.006H58V159.015H58.5444C59.6332 159.015 60.359 159.335 60.7219 159.966C61.1325 160.877 61.3168 161.873 61.259 162.871V183.599H64.0173L65.3746 181.857H65.5706C66.0454 182.501 66.6709 183.02 67.3924 183.367C68.3132 183.808 69.3262 184.022 70.3466 183.991C71.4382 184.047 72.5266 183.832 73.5146 183.365C74.5027 182.897 75.3594 182.192 76.0082 181.312C77.3942 179.311 78.0899 176.912 77.9898 174.48C78.095 172.035 77.3852 169.624 75.9719 167.626C74.6315 165.874 72.6645 164.998 70.0708 164.998ZM72.4225 180.245C72.2022 180.868 71.7944 181.408 71.255 181.79C70.7157 182.172 70.0713 182.378 69.4103 182.379C68.6243 182.384 67.8589 182.128 67.2328 181.653C66.6107 181.182 66.0939 180.586 65.7157 179.904V167.829C66.2657 167.515 66.8354 167.236 67.4215 166.995C67.9777 166.772 68.5716 166.658 69.1708 166.661C69.8658 166.637 70.5513 166.828 71.1343 167.207C71.7173 167.586 72.1696 168.136 72.4298 168.781C73.1802 170.594 73.5245 172.549 73.4387 174.509C73.5009 176.464 73.1445 178.41 72.3935 180.216L72.4225 180.245Z" fill="#40E0D0"/>
<path d="M96.6451 179.864C95.5725 181.45 94.3806 182.243 93.0696 182.243C90.6431 182.243 89.4322 180.432 89.437 176.811V170.001C89.4726 168.966 89.3691 167.931 89.1295 166.926C88.988 166.311 88.618 165.778 88.0997 165.444C87.4459 165.116 86.7226 164.966 85.9974 165.007H82V166.037H82.379C83.4516 166.037 84.1667 166.363 84.5243 167.007C84.9288 167.937 85.1103 168.954 85.0534 169.972V176.782C85.0534 179.346 85.647 181.188 86.834 182.31C88.0211 183.431 89.7111 183.994 91.904 183.999C92.8711 184.015 93.83 183.812 94.7143 183.406C95.4829 183.055 96.1776 182.552 96.7595 181.924H96.9454L98.2898 183.629H101V165.007H96.6451V179.864Z" fill="#40E0D0"/>
<path d="M111.591 158.425C110.902 158.111 110.139 157.967 109.374 158.006H105V158.992H105.566C106.697 158.992 107.443 159.304 107.828 159.921C108.261 160.808 108.456 161.782 108.394 162.757V183H112.994V162.785C113.028 161.795 112.919 160.805 112.67 159.843C112.517 159.258 112.131 158.75 111.591 158.425Z" fill="#40E0D0"/>
<path d="M125.757 165.001C124.589 164.988 123.422 165.097 122.276 165.327C121.473 165.441 120.721 165.8 120.117 166.356C119.72 166.777 119.451 167.309 119.343 167.886C119.22 168.603 119.164 169.331 119.175 170.06H121.094C121.236 169.023 121.735 168.073 122.501 167.386C123.245 166.871 124.13 166.617 125.025 166.661C125.576 166.628 126.126 166.745 126.619 166.999C127.113 167.253 127.533 167.636 127.838 168.11C128.471 169.052 128.781 170.698 128.781 173.046H127.937C124.496 173.046 121.983 173.5 120.398 174.408C119.639 174.809 119.009 175.429 118.584 176.192C118.16 176.955 117.96 177.828 118.007 178.706C117.966 179.453 118.099 180.2 118.394 180.884C118.688 181.569 119.137 182.171 119.702 182.641C120.761 183.382 121.984 183.837 123.258 183.964C124.533 184.09 125.817 183.885 126.994 183.366C127.725 183.036 128.359 182.517 128.837 181.859H129.027L130.342 183.598H133V173.169C133 170.27 132.367 168.19 131.101 166.929C129.835 165.668 128.054 165.025 125.757 165.001ZM128.724 179.692C128.384 180.349 127.926 180.935 127.374 181.416C126.816 181.9 126.106 182.158 125.377 182.141C124.984 182.158 124.592 182.087 124.228 181.933C123.864 181.779 123.536 181.546 123.267 181.25C122.683 180.533 122.391 179.611 122.452 178.677C122.452 176.02 124.271 174.688 127.909 174.684H128.696L128.724 179.692Z" fill="#40E0D0"/>
<path d="M150.204 165.008C148.245 164.92 146.326 165.596 144.818 166.905C144.587 166.397 144.193 165.991 143.705 165.756C143.046 165.488 142.342 165.367 141.636 165.4H138V166.43H138.532C139.595 166.43 140.296 166.756 140.658 167.401C141.065 168.329 141.247 169.347 141.189 170.365V183.993H145.441V168.335C146.385 167.409 147.633 166.897 148.928 166.905C149.45 166.885 149.97 166.989 150.448 167.209C150.927 167.428 151.352 167.757 151.692 168.172C152.396 169.031 152.748 170.373 152.748 172.196V184H157V172.218C157 169.654 156.4 167.811 155.2 166.69C154.031 165.563 152.33 165.008 150.204 165.008Z" fill="#40E0D0"/>
<path d="M175.393 181.58C174.392 182.14 173.246 182.417 172.088 182.377C171.288 182.414 170.493 182.242 169.786 181.879C169.079 181.517 168.488 180.978 168.074 180.319C167.168 178.949 166.723 177.029 166.723 174.521C166.723 172.013 167.184 170.172 168.112 168.766C168.512 168.117 169.087 167.583 169.776 167.219C170.465 166.856 171.242 166.677 172.028 166.7C173.409 166.63 174.763 167.083 175.801 167.962C176.807 168.952 177.37 170.281 177.37 171.665H178.419C178.446 170.455 178.393 169.245 178.261 168.041C178.178 167.406 177.878 166.814 177.408 166.36C176.472 165.454 174.435 165.005 171.319 165.005C169.522 164.95 167.746 165.385 166.195 166.258C164.817 167.072 163.722 168.26 163.049 169.672C162.357 171.193 162 172.835 162 174.495C162 176.155 162.357 177.798 163.049 179.319C163.722 180.731 164.817 181.919 166.195 182.733C167.744 183.612 169.521 184.049 171.319 183.994C172.948 184.054 174.563 183.678 175.982 182.907C177.22 182.155 178.255 181.132 179 179.92L177.913 179.145C177.257 180.114 176.399 180.943 175.393 181.58Z" fill="#40E0D0"/>
<path d="M199.99 173.072C200.046 171.99 199.871 170.909 199.476 169.896C199.08 168.882 198.473 167.959 197.692 167.183C196.863 166.44 195.888 165.865 194.825 165.492C193.762 165.119 192.633 164.955 191.504 165.011C189.949 164.966 188.415 165.368 187.094 166.164C185.773 166.96 184.725 168.116 184.081 169.487C183.332 171.058 182.963 172.775 183.003 174.506C182.975 176.182 183.335 177.842 184.058 179.366C184.726 180.753 185.787 181.929 187.119 182.755C188.55 183.606 190.206 184.036 191.885 183.994C193.459 184.055 195.017 183.678 196.375 182.907C197.591 182.158 198.6 181.134 199.316 179.923L198.299 179.148C197.635 180.083 196.792 180.885 195.814 181.509C194.853 182.076 193.743 182.36 192.619 182.328C191.917 182.345 191.222 182.184 190.604 181.861C189.986 181.539 189.465 181.065 189.094 180.488C188.241 179.257 187.815 177.48 187.815 175.158H199.87L199.99 173.072ZM187.785 173.499C187.785 171.247 188.129 169.552 188.825 168.429C189.063 167.93 189.44 167.505 189.913 167.201C190.386 166.897 190.936 166.725 191.504 166.705C192.081 166.688 192.651 166.833 193.144 167.122C193.638 167.411 194.035 167.832 194.288 168.335C194.916 169.421 195.23 171.152 195.23 173.528L187.785 173.499Z" fill="#40E0D0"/>
<path d="M126.516 23.2204C123.584 23.2199 120.762 24.3319 118.625 26.3296C116.489 28.3274 115.199 31.0605 115.018 33.9717C114.838 36.8829 115.78 39.753 117.653 41.9969C119.527 44.2408 122.19 45.6894 125.1 46.0476V64.8294C125.1 70.054 123.013 75.0646 119.3 78.7589C115.586 82.4532 110.549 84.5287 105.296 84.5287C100.044 84.5287 95.007 82.4532 91.2931 78.7589C87.5792 75.0646 85.4927 70.054 85.4927 64.8294V45.7803C91.3613 45.5746 96.9211 43.1134 101.003 38.9142C105.085 34.715 107.371 29.105 107.381 23.2637V1.59239H97.2137C96.9127 1.01804 96.4292 0.558932 95.8384 0.286696C95.2476 0.0144607 94.5828 -0.0555886 93.9478 0.0874785C93.3128 0.230546 92.7432 0.578681 92.328 1.07757C91.9128 1.57645 91.6753 2.19802 91.6525 2.8453C91.6297 3.49258 91.823 4.12915 92.2021 4.65569C92.5812 5.18223 93.1249 5.56912 93.7483 5.756C94.3717 5.94288 95.0398 5.91924 95.6483 5.68875C96.2568 5.45827 96.7714 5.03392 97.112 4.4819H104.483V23.2637C104.483 28.4883 102.397 33.4989 98.6826 37.1932C94.9687 40.8876 89.9316 42.963 84.6794 42.963C79.4271 42.963 74.39 40.8876 70.6761 37.1932C66.9622 33.4989 64.8758 28.4883 64.8758 23.2637V4.4819H72.2685C72.6096 5.03818 73.1263 5.46635 73.738 5.69949C74.3496 5.93262 75.0217 5.95757 75.6491 5.77043C76.2765 5.5833 76.8239 5.19462 77.2057 4.66518C77.5875 4.13574 77.7821 3.49538 77.7592 2.84421C77.7363 2.19305 77.4971 1.56779 77.0791 1.0662C76.661 0.564605 76.0876 0.214952 75.4486 0.071907C74.8096 -0.0711377 74.1409 0.000489796 73.5471 0.275591C72.9534 0.550692 72.468 1.01376 72.1669 1.59239H62V23.2637C62.008 28.8833 64.1221 34.298 67.9293 38.4498C71.7365 42.6016 76.9631 45.1922 82.5879 45.7153V64.8366C82.6943 70.7509 85.1309 76.3872 89.3732 80.5324C93.6155 84.6775 99.3243 87 105.271 87C111.217 87 116.926 84.6775 121.169 80.5324C125.411 76.3872 127.848 70.7509 127.954 64.8366V46.0548C130.855 45.683 133.506 44.2269 135.367 41.9821C137.229 39.7373 138.162 36.872 137.977 33.9679C137.792 31.0637 136.503 28.3383 134.372 26.345C132.241 24.3516 129.427 23.2397 126.502 23.2349L126.516 23.2204ZM127.968 43.1508V39.4811C129.139 39.1341 130.144 38.3797 130.801 37.3559C131.458 36.332 131.722 35.1072 131.546 33.9053C131.37 32.7034 130.765 31.6047 129.841 30.8103C128.917 30.0158 127.737 29.5786 126.516 29.5786C125.295 29.5786 124.115 30.0158 123.191 30.8103C122.267 31.6047 121.662 32.7034 121.486 33.9053C121.31 35.1072 121.574 36.332 122.231 37.3559C122.888 38.3797 123.893 39.1341 125.064 39.4811V43.1436C122.927 42.7815 121.004 41.6344 119.677 39.9294C118.35 38.2245 117.715 36.0859 117.898 33.9373C118.08 31.7887 119.067 29.7866 120.664 28.3275C122.26 26.8684 124.348 26.0587 126.516 26.0587C128.684 26.0587 130.772 26.8684 132.369 28.3275C133.965 29.7866 134.952 31.7887 135.134 33.9373C135.317 36.0859 134.682 38.2245 133.355 39.9294C132.028 41.6344 130.105 42.7815 127.968 43.1436V43.1508Z" fill="#40E0D0"/>
</g>
<defs>
<clipPath id="clip0_37_2">
<rect width="200" height="184" fill="white"/>
</clipPath>
</defs>
</svg>
