<svg width="32" height="37" viewBox="0 0 32 37" fill="none" xmlns="http://www.w3.org/2000/svg">
<path d="M27.1646 9.87535C25.93 9.87513 24.7418 10.348 23.8423 11.1977C22.9427 12.0473 22.3995 13.2096 22.3235 14.4477C22.2475 15.6858 22.6443 16.9065 23.433 17.8607C24.2218 18.815 25.3431 19.4311 26.5684 19.5834V27.5711C26.5684 29.7931 25.6899 31.924 24.1261 33.4952C22.5624 35.0663 20.4415 35.949 18.23 35.949C16.0186 35.949 13.8977 35.0663 12.3339 33.4952C10.7702 31.924 9.89167 29.7931 9.89167 27.5711V19.4698C12.3626 19.3823 14.7036 18.3356 16.4223 16.5497C18.141 14.7639 19.1036 12.378 19.1076 9.89378V0.677223H14.8268C14.7001 0.43296 14.4965 0.237707 14.2477 0.121928C13.999 0.00614994 13.7191 -0.0236411 13.4517 0.0372035C13.1843 0.0980481 12.9445 0.246106 12.7697 0.458275C12.5949 0.670445 12.4948 0.934792 12.4853 1.21007C12.4757 1.48535 12.557 1.75607 12.7167 1.98001C12.8763 2.20394 13.1052 2.36848 13.3677 2.44796C13.6302 2.52743 13.9115 2.51738 14.1677 2.41936C14.4239 2.32133 14.6406 2.14086 14.784 1.9061H17.8876V9.89378C17.8876 12.1157 17.0091 14.2467 15.4453 15.8178C13.8816 17.389 11.7607 18.2716 9.54921 18.2716C7.33774 18.2716 5.21684 17.389 3.6531 15.8178C2.08935 14.2467 1.21085 12.1157 1.21085 9.89378V1.9061H4.32359C4.46719 2.14267 4.68477 2.32477 4.94231 2.42392C5.19984 2.52307 5.48282 2.53368 5.747 2.45409C6.01117 2.37451 6.24165 2.20921 6.4024 1.98404C6.56315 1.75888 6.64511 1.48654 6.63547 1.20961C6.62582 0.932677 6.52511 0.666762 6.34908 0.453441C6.17306 0.240119 5.93164 0.0914162 5.66257 0.0305811C5.39351 -0.030254 5.11196 0.000208304 4.86195 0.117205C4.61195 0.234202 4.40757 0.431138 4.28079 0.677223H0V9.89378C0.00336803 12.2837 0.89353 14.5865 2.49655 16.3522C4.09957 18.1179 6.30025 19.2197 8.66859 19.4421V27.5742C8.71339 30.0895 9.73931 32.4865 11.5255 34.2494C13.3118 36.0123 15.7155 37 18.2193 37C20.7231 37 23.1269 36.0123 24.9131 34.2494C26.6993 32.4865 27.7253 30.0895 27.7701 27.5742V19.5865C28.9917 19.4284 30.1077 18.8091 30.8915 17.8545C31.6753 16.8998 32.0681 15.6812 31.9903 14.4461C31.9125 13.211 31.3698 12.0519 30.4724 11.2042C29.5751 10.3564 28.3903 9.88354 27.1585 9.88149L27.1646 9.87535ZM27.7762 18.3515V16.7908C28.2689 16.6432 28.6922 16.3224 28.9689 15.887C29.2455 15.4515 29.3568 14.9306 29.2826 14.4195C29.2084 13.9083 28.9535 13.4411 28.5646 13.1032C28.1757 12.7654 27.6788 12.5794 27.1646 12.5794C26.6505 12.5794 26.1536 12.7654 25.7647 13.1032C25.3758 13.4411 25.1209 13.9083 25.0467 14.4195C24.9724 14.9306 25.0838 15.4515 25.3604 15.887C25.637 16.3224 26.0604 16.6432 26.5531 16.7908V18.3484C25.6533 18.1944 24.8439 17.7066 24.2851 16.9815C23.7264 16.2564 23.459 15.3469 23.5359 14.4331C23.6128 13.5193 24.0284 12.6679 24.7004 12.0473C25.3725 11.4268 26.2519 11.0824 27.1646 11.0824C28.0774 11.0824 28.9568 11.4268 29.6289 12.0473C30.3009 12.6679 30.7165 13.5193 30.7934 14.4331C30.8703 15.3469 30.6029 16.2564 30.0441 16.9815C29.4854 17.7066 28.6759 18.1944 27.7762 18.3484V18.3515Z" fill="#00AAFF"/>
</svg>
