<svg width="278" height="80" viewBox="0 0 278 80" fill="none" xmlns="http://www.w3.org/2000/svg">
<g clip-path="url(#clip0_37_21)">
<path d="M98.617 9.79411L107.962 29.4014H108.913L117.09 10.3778V23.3786C117.09 26.0982 117.614 28.0483 118.661 29.229C119.708 30.4097 121.488 31 124 31V30.1642C123.492 30.117 123.009 29.9182 122.614 29.5931C122.218 29.2681 121.929 28.8317 121.782 28.3401C121.265 26.7332 121.042 25.0456 121.122 23.3587V6H117.07L109.381 23.823L100.907 6H97V29.4014H98.617V9.79411Z" fill="#00AAFF"/>
<path d="M130.967 27.8676C132.325 28.6429 133.89 29.035 135.476 28.9975C137.071 29.0342 138.644 28.6424 140.012 27.8676C141.283 27.1339 142.307 26.0758 142.968 24.8153C143.67 23.4737 144.024 21.9932 143.999 20.4967C144.022 19.0003 143.669 17.5202 142.968 16.1781C142.303 14.92 141.28 13.8627 140.012 13.1258C138.642 12.3563 137.07 11.9669 135.476 12.0024C133.891 11.9658 132.327 12.3554 130.967 13.1258C129.705 13.8651 128.687 14.9221 128.026 16.1781C127.327 17.5207 126.976 19.0009 127.001 20.4967C126.975 21.9927 127.326 23.4732 128.026 24.8153C128.683 26.0737 129.703 27.1315 130.967 27.8676ZM132.452 15.4507C133.185 14.1519 134.2 13.5025 135.497 13.5025C136.793 13.5025 137.815 14.1519 138.562 15.4507C139.372 17.0192 139.757 18.753 139.682 20.4967C139.757 22.2404 139.372 23.9742 138.562 25.5427C137.82 26.8415 136.796 27.4909 135.497 27.4909C134.198 27.4909 133.187 26.8415 132.452 25.5427C131.656 23.9704 131.278 22.2382 131.352 20.4967C131.278 18.7552 131.656 17.023 132.452 15.4507Z" fill="#00AAFF"/>
<path d="M149.282 14.1438C149.644 14.9765 149.805 15.8847 149.752 16.7931V29H153.742V17.0779C153.732 16.6039 153.697 16.1308 153.638 15.6605C153.983 15.2189 154.431 14.8727 154.942 14.6538C155.536 14.3996 156.176 14.2733 156.82 14.2829C157.342 14.2739 157.857 14.3968 158.32 14.6405C158.729 14.8494 159.086 15.1507 159.363 15.5214L161 14.2829C160.86 14.0731 160.738 13.8515 160.635 13.6205C160.432 13.236 160.138 12.9084 159.781 12.6667C159.105 12.197 158.297 11.9644 157.479 12.0044C156.618 11.9889 155.763 12.1628 154.975 12.5144C154.283 12.8224 153.646 13.2455 153.09 13.7662C152.884 13.2957 152.522 12.9136 152.067 12.6866C151.466 12.4337 150.818 12.3184 150.169 12.3488H147V13.2695H147.346C148.324 13.2761 148.969 13.5609 149.282 14.1438Z" fill="#00AAFF"/>
<path d="M166.238 20.4014C165.531 20.7625 164.943 21.3186 164.547 22.0027C164.152 22.6867 163.964 23.4696 164.007 24.257C163.969 24.9266 164.093 25.5954 164.368 26.2081C164.643 26.8209 165.061 27.36 165.588 27.781C166.576 28.4458 167.716 28.8538 168.904 28.9674C170.093 29.081 171.291 28.8966 172.388 28.4312C173.071 28.1372 173.664 27.6709 174.108 27.0788H174.278L175.506 28.6847H178V19.2895C178 16.6888 177.409 14.8249 176.228 13.6979C175.046 12.571 173.381 12.0053 171.233 12.001C170.145 11.9891 169.059 12.0872 167.991 12.2935C167.238 12.393 166.534 12.7147 165.969 13.2168C165.603 13.5942 165.354 14.0683 165.254 14.5822C165.139 15.226 165.086 15.8791 165.096 16.5328H166.881C167.015 15.6049 167.481 14.7555 168.194 14.1401C168.886 13.6786 169.71 13.4506 170.544 13.4899C171.05 13.4621 171.554 13.5642 172.008 13.7864C172.463 14.0085 172.851 14.3431 173.136 14.7577C173.723 15.6247 174.016 17.1006 174.016 19.1855H173.274C170.067 19.1855 167.722 19.5908 166.238 20.4014ZM174.003 25.1607C173.688 25.7619 173.258 26.2964 172.736 26.7342C172.218 27.1685 171.557 27.3998 170.879 27.3844C170.511 27.4005 170.145 27.3373 169.805 27.1992C169.465 27.0611 169.16 26.8514 168.91 26.5846C168.37 25.9439 168.1 25.1221 168.155 24.2895C168.155 21.9055 169.85 20.7135 173.241 20.7135H173.977L174.003 25.1607Z" fill="#00AAFF"/>
<path d="M193.104 23.3168L189.919 16.3346C189.365 14.9508 188.388 13.7599 187.115 12.9182C185.954 12.2856 184.635 11.969 183.301 12.0024L182 12.0674V12.7623C182.339 12.7825 182.671 12.8682 182.975 13.0144C183.279 13.1607 183.549 13.3643 183.768 13.6132C184.455 14.4437 185.023 15.359 185.455 16.3346L191.356 29H192.44L200 12.3466H198.123L193.104 23.3168Z" fill="#00AAFF"/>
<path d="M203.472 14.8323C203.853 15.6784 204.023 16.6076 203.968 17.5372V30H207.994V17.5575C208.027 16.6153 207.931 15.673 207.709 14.758C207.578 14.1965 207.236 13.7105 206.757 13.4055C206.154 13.1047 205.485 12.9673 204.814 13.0066H201V13.9465H201.496C202.487 13.9465 203.142 14.2373 203.472 14.8323Z" fill="#00AAFF"/>
<path d="M206.261 10.9964C206.49 11.0072 206.72 10.9621 206.935 10.8638C207.151 10.7654 207.348 10.6158 207.515 10.4237C207.678 10.2236 207.805 9.98457 207.888 9.72174C207.971 9.4589 208.009 9.17796 207.998 8.89661C208.012 8.13744 207.787 7.40048 207.371 6.83502C207.161 6.55697 206.903 6.33838 206.616 6.19459C206.328 6.05081 206.019 5.98533 205.709 6.00275C205.484 5.99451 205.26 6.04091 205.05 6.13923C204.84 6.23756 204.648 6.38584 204.485 6.57542C204.321 6.77442 204.193 7.01325 204.11 7.27636C204.027 7.53947 203.99 7.82096 204.002 8.10252C203.993 8.86778 204.216 9.61026 204.63 10.187C204.836 10.46 205.089 10.6742 205.371 10.8141C205.653 10.954 205.957 11.0163 206.261 10.9964Z" fill="#00AAFF"/>
<path d="M223.11 27.1048H223.287L224.514 28.6652H227V19.2895C227 16.6888 226.41 14.8249 225.229 13.6979C224.048 12.5666 222.388 12.001 220.236 12.001C219.149 11.9891 218.063 12.0872 216.996 12.2935C216.245 12.3926 215.543 12.7145 214.981 13.2168C214.613 13.5936 214.363 14.0677 214.26 14.5822C214.145 15.226 214.093 15.8791 214.102 16.5328H215.893C216.027 15.6049 216.492 14.7555 217.205 14.1401C217.897 13.6786 218.721 13.4506 219.554 13.4899C220.06 13.4615 220.564 13.5633 221.018 13.7855C221.472 14.0077 221.861 14.3426 222.145 14.7577C222.727 15.6247 223.02 17.1006 223.024 19.1855H222.257C219.055 19.1855 216.713 19.5908 215.231 20.4014C214.525 20.7641 213.94 21.3207 213.546 22.0045C213.151 22.6884 212.964 23.4704 213.007 24.257C212.969 24.926 213.091 25.5945 213.365 26.2072C213.639 26.8199 214.056 27.3594 214.581 27.781C215.568 28.4458 216.708 28.8538 217.896 28.9674C219.083 29.081 220.281 28.8966 221.378 28.4312C222.062 28.1464 222.659 27.6892 223.11 27.1048ZM217.94 26.5521C217.401 25.9114 217.131 25.0896 217.186 24.257C217.186 21.873 218.88 20.6809 222.27 20.6809H223.005V25.1607C222.69 25.7603 222.263 26.2944 221.745 26.7342C221.226 27.1664 220.566 27.3974 219.889 27.3844C219.523 27.3927 219.159 27.3227 218.823 27.179C218.486 27.0354 218.185 26.8216 217.94 26.5521Z" fill="#00AAFF"/>
<path d="M114.265 63.2964L106.447 44H105.135L95 67.8499H96.7198L99.5619 61.1651H109.099L109.94 63.2964C110.662 65.157 111.6 66.402 112.742 67.038C113.882 67.6776 115.16 68.0082 116.457 67.9987C116.977 68.0098 117.496 67.9484 118 67.816V66.9838C117.202 66.9085 116.453 66.5526 115.88 65.9757C115.181 65.1971 114.632 64.2876 114.265 63.2964ZM100.205 59.6225L104.38 49.751L108.377 59.6225H100.205Z" fill="#00AAFF"/>
<path d="M139.5 50.0084C138.546 49.9691 137.596 50.1456 136.717 50.525C135.838 50.9045 135.053 51.4775 134.418 52.2028C134.012 51.5111 133.41 50.9609 132.691 50.6249C131.818 50.1968 130.858 49.9855 129.889 50.0084C129.005 49.993 128.128 50.1669 127.315 50.5189C126.626 50.8143 125.991 51.2268 125.438 51.7387H125.295C125.07 51.2722 124.689 50.903 124.22 50.6979C123.622 50.451 122.981 50.3358 122.336 50.3598H119V51.2813H119.482C120.46 51.2813 121.111 51.5663 121.437 52.1497C121.812 52.9791 121.98 53.8901 121.926 54.8016V66.9801H125.836V53.1574C126.236 52.7501 126.693 52.404 127.191 52.1299C127.658 51.8579 128.185 51.7119 128.722 51.7056C130.577 51.7056 131.505 53.2878 131.505 56.4523V67H135.415V56.4523C135.475 55.4333 135.344 54.412 135.03 53.4425C135.403 52.9286 135.886 52.5089 136.444 52.216C137.011 51.8893 137.65 51.7137 138.301 51.7056C140.156 51.7056 141.086 53.2878 141.09 56.4523V67H145V56.4523C145 54.1585 144.52 52.5122 143.56 51.5133C143.018 50.9963 142.379 50.5964 141.682 50.3377C140.984 50.0791 140.242 49.967 139.5 50.0084Z" fill="#00AAFF"/>
<path d="M159.866 50.459C158.488 50.4533 157.133 50.8237 155.941 51.5322V48.5206C155.963 47.5853 155.862 46.6513 155.64 45.7437C155.506 45.1872 155.166 44.7061 154.692 44.4022C154.094 44.1038 153.432 43.9676 152.768 44.0065H149V44.9388H149.484C150.465 44.9388 151.12 45.2339 151.447 45.8175C151.817 46.6585 151.983 47.5791 151.931 48.5004V67.6299H154.417L155.64 66.0201H155.81C156.238 66.6157 156.802 67.0947 157.452 67.4152C158.28 67.8219 159.191 68.0197 160.108 67.9921C161.092 68.0435 162.073 67.8443 162.963 67.4125C163.854 66.9806 164.626 66.3294 165.211 65.5171C166.459 63.6705 167.084 61.4565 166.99 59.2121C167.087 56.9561 166.449 54.7313 165.178 52.8871C163.966 51.2728 162.195 50.4635 159.866 50.459ZM161.979 64.4975C161.782 65.0729 161.416 65.5714 160.931 65.9245C160.446 66.2776 159.866 66.468 159.271 66.4695C158.563 66.4734 157.873 66.2377 157.308 65.7988C156.746 65.3677 156.28 64.819 155.941 64.189V53.0749C156.435 52.7813 156.949 52.5235 157.478 52.3035C157.979 52.0945 158.515 51.9897 159.055 51.995C159.68 51.972 160.297 52.1471 160.821 52.4963C161.346 52.8456 161.752 53.3521 161.986 53.9468C162.662 55.6195 162.972 57.4235 162.895 59.2322C162.96 61.0343 162.648 62.8297 161.979 64.4975Z" fill="#00AAFF"/>
<path d="M183.852 63.2708C182.843 64.688 181.704 65.3966 180.464 65.3966C178.173 65.3966 177.028 63.7807 177.028 60.5489V54.4629C177.059 53.5403 176.961 52.6179 176.736 51.7211C176.597 51.1736 176.248 50.6994 175.761 50.3966C175.141 50.1037 174.455 49.9693 173.768 50.0059H170V50.9264H170.366C171.383 50.9264 172.053 51.2112 172.399 51.794C172.79 52.6225 172.964 53.5325 172.907 54.443V60.5622C172.907 62.8447 173.468 64.4893 174.588 65.496C175.709 66.5026 177.308 67.0037 179.386 66.9993C180.303 67.013 181.212 66.8322 182.05 66.4695C182.776 66.155 183.432 65.7051 183.981 65.145H184.164L185.431 66.6615H188V50.0059H183.873L183.852 63.2708Z" fill="#00AAFF"/>
<path d="M196.752 44.391C196.148 44.1022 195.48 43.9697 194.811 44.0058H191V44.9133H191.495C192.486 44.9133 193.14 45.2006 193.477 45.7686C193.856 46.5856 194.026 47.4826 193.972 48.3801V67H197.994V48.3997C198.027 47.49 197.931 46.5803 197.71 45.6968C197.577 45.1536 197.233 44.6842 196.752 44.391Z" fill="#00AAFF"/>
<path d="M210.233 50.001C209.145 49.9891 208.059 50.0871 206.991 50.2932C206.24 50.3934 205.537 50.7121 204.969 51.2089C204.604 51.5891 204.356 52.0645 204.254 52.5792C204.139 53.2223 204.087 53.8747 204.096 54.5276H205.882C205.913 54.0879 206.033 53.6589 206.234 53.2659C206.436 52.8729 206.715 52.5238 207.055 52.2392C207.395 51.9547 207.79 51.7405 208.215 51.6093C208.64 51.4781 209.088 51.4325 209.531 51.4752C210.04 51.4509 210.546 51.5579 211.001 51.7856C211.455 52.0133 211.842 52.3539 212.123 52.7741C212.71 53.64 213.003 55.1142 213.003 57.1968H212.268C209.065 57.1968 206.722 57.6016 205.238 58.4112C204.53 58.7713 203.943 59.3266 203.547 60.0101C203.151 60.6935 202.963 61.4758 203.007 62.2624C202.968 62.9314 203.092 63.5997 203.367 64.212C203.642 64.8242 204.061 65.3626 204.589 65.7824C205.576 66.4464 206.716 66.8539 207.905 66.9674C209.093 67.0809 210.291 66.8967 211.388 66.4318C212.069 66.1344 212.661 65.6693 213.108 65.081H213.279L214.506 66.6396H217V57.2812C217 54.6834 216.409 52.8325 215.228 51.696C214.046 50.5595 212.379 50.001 210.233 50.001ZM213.003 63.1456C212.685 63.7368 212.255 64.2617 211.736 64.6913C211.218 65.1257 210.557 65.3568 209.879 65.3408C209.512 65.3581 209.146 65.2963 208.806 65.1594C208.466 65.0226 208.16 64.8141 207.91 64.5484C207.37 63.9084 207.1 63.0876 207.155 62.2559C207.155 59.8746 208.85 58.684 212.242 58.684H212.977L213.003 63.1456Z" fill="#00AAFF"/>
<path d="M232.565 50.007C230.711 49.9271 228.894 50.5326 227.468 51.705C227.247 51.2506 226.871 50.8869 226.406 50.6769C225.784 50.4367 225.117 50.3282 224.449 50.3585H221V51.2805H221.477C222.479 51.2805 223.152 51.5657 223.495 52.1494C223.882 52.9792 224.055 53.8906 223.999 54.8025V66.9867H228.033V52.9718C228.931 52.147 230.114 51.6915 231.341 51.6984C231.838 51.6835 232.332 51.7796 232.786 51.9794C233.241 52.1793 233.643 52.4777 233.964 52.8524C234.632 53.6174 234.966 54.8157 234.966 56.4474V67H239V56.454C239 54.1591 238.431 52.512 237.292 51.5126C236.223 50.5045 234.623 50.007 232.565 50.007Z" fill="#00AAFF"/>
<path d="M255.835 64.8193C254.949 65.3172 253.938 65.5624 252.916 65.527C252.21 65.5601 251.508 65.4068 250.884 65.0834C250.26 64.7601 249.737 64.2785 249.371 63.6897C248.58 62.4648 248.183 60.7335 248.178 58.4959C248.178 56.3015 248.591 54.6006 249.411 53.3476C249.761 52.7681 250.264 52.2905 250.867 51.964C251.471 51.6375 252.153 51.4742 252.843 51.4908C254.062 51.4279 255.259 51.8335 256.175 52.6204C257.061 53.5062 257.559 54.6941 257.561 55.9315H258.487C258.51 54.8606 258.463 53.7894 258.347 52.7243C258.269 52.1557 258.008 51.6258 257.601 51.2116C256.77 50.4066 254.977 50.0041 252.223 50.0041C250.638 49.9554 249.072 50.3448 247.705 51.1272C246.492 51.8566 245.525 52.9178 244.926 54.1786C244.315 55.5401 244 57.01 244 58.4959C244 59.9818 244.315 61.4517 244.926 62.8132C245.521 64.0764 246.489 65.1385 247.705 65.8646C249.07 66.6519 250.637 67.0438 252.223 66.9942C253.66 67.0492 255.084 66.7119 256.335 66.0204C257.43 65.3517 258.344 64.4366 259 63.3521L258.014 62.6704C257.44 63.5201 256.7 64.2505 255.835 64.8193Z" fill="#00AAFF"/>
<path d="M277.991 57.2271C278.041 56.2581 277.886 55.2894 277.535 54.3822C277.185 53.475 276.646 52.6491 275.953 51.9568C275.222 51.2905 274.362 50.7749 273.424 50.4404C272.486 50.1059 271.49 49.9595 270.493 50.0096C269.123 49.9747 267.773 50.3358 266.611 51.0478C265.448 51.7599 264.525 52.7915 263.955 54.0143C263.293 55.4184 262.967 56.9526 263.003 58.4993C262.978 60.0012 263.296 61.4895 263.936 62.8545C264.528 64.095 265.467 65.1458 266.642 65.8856C267.905 66.6486 269.368 67.0343 270.851 66.9954C272.231 67.0438 273.596 66.7061 274.788 66.0219C275.863 65.3529 276.755 64.4373 277.388 63.3542L276.469 62.6533C275.881 63.4875 275.138 64.2054 274.278 64.7692C273.426 65.2745 272.442 65.527 271.446 65.4961C270.826 65.5121 270.213 65.3683 269.667 65.079C269.121 64.7897 268.662 64.3651 268.336 63.8475C267.582 62.7528 267.205 61.1647 267.205 59.0834H277.885L277.991 57.2271ZM267.205 57.6036C267.113 56.0371 267.43 54.4735 268.124 53.0602C268.334 52.6124 268.667 52.2307 269.085 51.9579C269.504 51.6851 269.991 51.5319 270.493 51.5154C271.002 51.5014 271.505 51.6317 271.94 51.8907C272.376 52.1498 272.726 52.5265 272.948 52.9758C273.504 53.9429 273.782 55.4941 273.782 57.6166L267.205 57.6036Z" fill="#00AAFF"/>
<path d="M58.5164 21.4328C55.8439 21.4086 53.2638 22.4211 51.3069 24.2619C49.3501 26.1028 48.1653 28.6321 47.9963 31.3294C47.8273 34.0267 48.687 36.687 50.3985 38.7628C52.11 40.8387 54.5431 42.1724 57.1973 42.4894V59.831C57.1071 64.5902 55.1743 69.1237 51.8141 72.4572C48.4539 75.7907 43.9346 77.6581 39.2275 77.6581C34.5204 77.6581 30.0011 75.7907 26.6409 72.4572C23.2808 69.1237 21.3479 64.5902 21.2577 59.831V42.2426C26.5895 42.0629 31.644 39.797 35.356 35.9225C39.0681 32.048 41.1477 26.8675 41.1567 21.4728V1.49669H31.9229C31.6495 0.966383 31.2103 0.542481 30.6738 0.291122C30.1372 0.0397632 29.5334 -0.0249143 28.9567 0.107182C28.3799 0.239277 27.8626 0.560716 27.4855 1.02134C27.1084 1.48197 26.8927 2.05588 26.872 2.65352C26.8513 3.25116 27.0268 3.83891 27.3712 4.32507C27.7155 4.81124 28.2093 5.16846 28.7755 5.34101C29.3417 5.51356 29.9485 5.49173 30.5011 5.27892C31.0538 5.06611 31.5212 4.6743 31.8305 4.16462H38.5449V21.5062C38.3627 26.2007 36.3893 30.6413 33.0389 33.896C29.6885 37.1507 25.2216 38.9665 20.5757 38.9622C15.9298 38.9579 11.4662 37.1338 8.12175 33.8729C4.77726 30.6119 2.81193 26.1676 2.63825 21.4728V4.13127H9.29984C9.60937 4.64292 10.0778 5.03649 10.6318 5.25052C11.1859 5.46456 11.7945 5.48699 12.3625 5.31432C12.9305 5.14165 13.426 4.78361 13.7716 4.29611C14.1171 3.80861 14.2933 3.2191 14.2725 2.61967C14.2518 2.02023 14.0353 1.44462 13.6569 0.982746C13.2785 0.520868 12.7595 0.198728 12.1809 0.0666428C11.6023 -0.0654428 10.9968 -3.67736e-05 10.4589 0.252645C9.92093 0.505327 9.4809 0.931056 9.2075 1.46334H0V21.4728C0.00739793 26.6572 1.92636 31.6525 5.38182 35.4823C8.83727 39.3121 13.5809 41.7012 18.6854 42.1826V59.8176C18.6365 62.5813 19.1325 65.3272 20.1445 67.8949C21.1566 70.4626 22.6643 72.8007 24.5797 74.7726C26.4951 76.7446 28.7799 78.3109 31.3005 79.3801C33.8211 80.4493 36.5271 81 39.2605 81C41.9939 81 44.6999 80.4493 47.2205 79.3801C49.7411 78.3109 52.0258 76.7446 53.9413 74.7726C55.8567 72.8007 57.3644 70.4626 58.3764 67.8949C59.3885 65.3272 59.8845 62.5813 59.8356 59.8176V42.4761C62.4781 42.1454 64.8961 40.8069 66.5955 38.7339C68.2949 36.661 69.1475 34.0101 68.9791 31.3229C68.8107 28.6356 67.634 26.1148 65.6894 24.2754C63.7448 22.436 61.1791 21.4168 58.5164 21.4261V21.4328ZM59.8356 39.8215V36.4332C60.8983 36.1128 61.8115 35.4162 62.4082 34.4709C63.0049 33.5256 63.2451 32.3946 63.085 31.2849C62.9249 30.1752 62.3751 29.1608 61.5363 28.4273C60.6974 27.6938 59.6254 27.2901 58.5164 27.2901C57.4074 27.2901 56.3355 27.6938 55.4966 28.4273C54.6577 29.1608 54.108 30.1752 53.9479 31.2849C53.7878 32.3946 54.028 33.5256 54.6247 34.4709C55.2213 35.4162 56.1345 36.1128 57.1973 36.4332V39.8148C55.2636 39.4805 53.5244 38.4243 52.324 36.8552C51.1236 35.286 50.5496 33.3183 50.7155 31.3415C50.8813 29.3648 51.775 27.523 53.2197 26.1808C54.6643 24.8387 56.5546 24.0938 58.5164 24.0938C60.4782 24.0938 62.3685 24.8387 63.8132 26.1808C65.2578 27.523 66.1516 29.3648 66.3174 31.3415C66.4833 33.3183 65.9092 35.286 64.7089 36.8552C63.5085 38.4243 61.7693 39.4805 59.8356 39.8148V39.8215Z" fill="#00AAFF"/>
</g>
<defs>
<clipPath id="clip0_37_21">
<rect width="278" height="80" fill="white"/>
</clipPath>
</defs>
</svg>
