<svg width="80" height="80" viewBox="0 0 80 80" fill="none" xmlns="http://www.w3.org/2000/svg">
<path d="M74.2867 18.4102V80.0001H7.46735V0.000366211H55.877L64.4517 8.57521L74.2867 18.4102Z" fill="#FFFEFE"/>
<path d="M37.7597 5.35864H5.71326V19.6974H37.7597V5.35864Z" fill="#4A779D"/>
<path d="M17.2081 10.0592C17.0667 9.7176 16.8782 9.41135 16.6192 9.15229C16.3601 8.89323 16.042 8.6812 15.6768 8.53979C15.3 8.38666 14.8759 8.31604 14.4048 8.31604H10.8829V17.409H12.6615V13.9814H14.4048C14.8759 13.9814 15.3 13.9107 15.6768 13.7576C16.042 13.6162 16.36 13.4043 16.6192 13.1451C16.8784 12.886 17.0668 12.5915 17.2081 12.2382C17.3376 11.8967 17.4084 11.5315 17.4084 11.1546C17.4082 10.7659 17.3376 10.4007 17.2081 10.0592ZM15.2881 12.0496C15.0525 12.2734 14.7228 12.3912 14.3223 12.3912H12.6615V9.89417H14.3223C14.7228 9.89417 15.0526 10.012 15.2881 10.2474C15.5118 10.4712 15.6297 10.7774 15.6297 11.1543C15.6298 11.5196 15.512 11.8259 15.2881 12.0496Z" fill="#FFFEFE"/>
<path d="M25.7121 11.8376C25.7004 11.5197 25.6886 11.237 25.6532 10.9778C25.6179 10.7186 25.559 10.4831 25.4765 10.2594C25.394 10.0473 25.2881 9.83529 25.1467 9.64686C24.8287 9.18748 24.44 8.84592 24.0042 8.63389C23.5565 8.42186 23.0265 8.31592 22.4023 8.31592H19.1279V17.4089H22.4023C23.0265 17.4089 23.5565 17.3029 24.0042 17.0909C24.44 16.8789 24.8287 16.5373 25.1467 16.0779C25.2881 15.8895 25.394 15.6775 25.4765 15.4654C25.559 15.2417 25.6179 15.0061 25.6532 14.747C25.6886 14.4879 25.7003 14.2051 25.7121 13.8872C25.7239 13.5809 25.7239 13.2394 25.7239 12.8625C25.7239 12.4856 25.7239 12.1439 25.7121 11.8376ZM23.9336 13.7812C23.9336 14.0522 23.91 14.2642 23.8864 14.4526C23.8628 14.6294 23.8275 14.7942 23.7804 14.912C23.7334 15.0415 23.6626 15.1594 23.5803 15.2653C23.2857 15.6422 22.8382 15.8189 22.2493 15.8189H20.8948V9.8942H22.2493C22.8382 9.8942 23.2859 10.0826 23.5803 10.4595C23.6628 10.5654 23.7334 10.6715 23.7804 10.8011C23.8275 10.9306 23.8629 11.0837 23.8864 11.2722C23.91 11.4489 23.9336 11.6726 23.9336 11.9317C23.9453 12.1909 23.9453 12.5089 23.9453 12.8622C23.9454 13.2158 23.9454 13.522 23.9336 13.7812Z" fill="#FFFEFE"/>
<path d="M33.3093 9.8942V8.31592H27.314V17.4089H29.0926V13.7223H32.6851V12.1322H29.0926V9.8942H33.3093Z" fill="#FFFEFE"/>
<path d="M17.2081 10.0592C17.0667 9.7176 16.8782 9.41135 16.6192 9.15229C16.3601 8.89323 16.042 8.6812 15.6768 8.53979C15.3 8.38666 14.8759 8.31604 14.4048 8.31604H10.8829V17.409H12.6615V13.9814H14.4048C14.8759 13.9814 15.3 13.9107 15.6768 13.7576C16.042 13.6162 16.36 13.4043 16.6192 13.1451C16.8784 12.886 17.0668 12.5915 17.2081 12.2382C17.3376 11.8967 17.4084 11.5315 17.4084 11.1546C17.4082 10.7659 17.3376 10.4007 17.2081 10.0592ZM15.2881 12.0496C15.0525 12.2734 14.7228 12.3912 14.3223 12.3912H12.6615V9.89417H14.3223C14.7228 9.89417 15.0526 10.012 15.2881 10.2474C15.5118 10.4712 15.6297 10.7774 15.6297 11.1543C15.6298 11.5196 15.512 11.8259 15.2881 12.0496Z" fill="#FFFEFE"/>
<path opacity="0.08" d="M74.2867 18.4102V80H7.46735V65.5596L38.7039 34.323L40.5531 32.4738L41.5778 31.4489L43.2858 29.7411L45.3117 27.7152L64.4517 8.5752L74.2867 18.4102Z" fill="#040000"/>
<path d="M74.2867 18.4119H55.8748V0L74.2867 18.4119Z" fill="#BBBBBA"/>
<path d="M64.7462 57.9153C64.3575 57.2322 63.8275 56.5844 63.168 55.9955C62.6262 55.5008 61.9902 55.0414 61.2716 54.6173C58.3741 52.9095 54.2398 52.085 48.6214 52.085H48.0561C47.7498 51.8023 47.4319 51.5197 47.102 51.2251C44.9702 49.3053 43.2741 47.2205 41.9548 44.9001C44.5461 39.1875 45.7828 34.0992 45.6297 29.7647C45.6061 29.0344 45.5002 28.3512 45.3117 27.7151C45.0291 26.6905 44.558 25.7834 43.8983 25.0414C43.8866 25.0297 43.8866 25.0297 43.8747 25.0178C42.8264 23.84 41.3659 23.1686 39.8817 23.1686C38.3858 23.1686 37.0078 23.8164 36.0066 25.0061C35.0172 26.1839 34.4872 27.7976 34.4636 29.6939C34.4283 32.5914 34.6637 35.3358 35.1586 37.8681C35.2056 38.0684 35.2411 38.2686 35.2881 38.4687C35.7828 40.7656 36.5131 42.9445 37.4553 44.9705C36.3481 47.2201 35.2292 49.1636 34.4517 50.4828C33.8628 51.484 33.215 52.5323 32.5436 53.5806C29.5166 54.1225 26.9487 54.782 24.7109 55.6065C21.6839 56.702 19.2575 58.1153 17.5142 59.7997C16.3834 60.8833 15.6178 62.0376 15.2409 63.239C14.8405 64.4758 14.8641 65.7125 15.3116 66.8197C15.7237 67.8444 16.4658 68.7042 17.4553 69.2931C17.6909 69.4345 17.9383 69.5522 18.1973 69.6583C18.9512 69.9645 19.7756 70.1294 20.6355 70.1294C22.6261 70.1294 24.6755 69.2695 26.4069 67.7266C29.6342 64.8408 32.9675 60.2001 34.9345 57.2672C36.5481 57.0198 38.3031 56.8078 40.282 56.5958C42.6142 56.3601 44.6755 56.2189 46.5483 56.1481C47.1255 56.6664 47.6791 57.1611 48.2091 57.6322C51.1537 60.2587 53.3916 62.1551 55.4175 63.4861C55.4175 63.4978 55.4292 63.4978 55.4411 63.4978C56.242 64.0278 57.0077 64.4636 57.7733 64.817C58.6331 65.2175 59.5047 65.4295 60.3998 65.4295C61.5306 65.4295 62.5906 65.088 63.4741 64.4637C64.3692 63.8159 65.017 62.8855 65.3116 61.8372C65.6531 60.5772 65.453 59.1756 64.7462 57.9153ZM38.7039 34.323C38.5391 32.8623 38.4683 31.343 38.4919 29.7411C38.5155 28.2217 39.0691 27.1969 39.8817 27.1969C40.4942 27.1969 41.142 27.7505 41.4364 28.8105C41.5189 29.1284 41.5778 29.4936 41.5895 29.9058C41.6131 30.4005 41.6012 30.9187 41.5778 31.4487C41.5072 32.9447 41.248 34.5347 40.8005 36.2426C40.5295 37.3381 40.1762 38.4806 39.7405 39.6701C39.2458 37.9978 38.8923 36.2192 38.7039 34.323ZM19.0573 65.3239C18.857 64.8292 19.0809 63.8751 20.3059 62.6973C22.1787 60.907 25.1116 59.4936 29.1987 58.4217C28.4214 59.4817 27.6558 60.4476 26.9137 61.3309C25.783 62.6972 24.6994 63.8515 23.7217 64.7231C22.8855 65.4769 21.9667 65.9481 21.0952 66.0659C20.942 66.0895 20.7889 66.1012 20.6358 66.1012C19.87 66.1014 19.2458 65.7951 19.0573 65.3239ZM37.8794 52.8034L37.9619 52.6739L37.8323 52.6975C37.8559 52.6386 37.8912 52.5797 37.9266 52.5326C38.4212 51.6964 39.0455 50.6245 39.7169 49.3878L39.7758 49.5173L39.9289 49.1994C40.4236 49.9061 40.9655 50.6011 41.5308 51.2723C41.8017 51.5903 42.0844 51.8965 42.367 52.2028L42.1786 52.2145L42.3434 52.3676C41.8605 52.403 41.3541 52.4501 40.8475 52.4972C40.5295 52.5325 40.1997 52.5561 39.8698 52.5914C39.1869 52.662 38.5155 52.7328 37.8794 52.8034ZM57.7027 60.1531C56.3009 59.258 54.7345 57.9976 52.8028 56.3133C55.5472 56.5959 57.7026 57.1967 59.2339 58.0919C59.9053 58.4806 60.4117 58.8811 60.7533 59.2697C61.3186 59.8703 61.5189 60.4122 61.4128 60.7773C61.3186 61.1425 60.9064 61.3898 60.3998 61.3898C60.1053 61.3898 59.7992 61.3192 59.4811 61.1661C58.9392 60.907 58.3739 60.5889 57.7733 60.2003C57.7497 60.2003 57.7262 60.1767 57.7027 60.1531Z" fill="#4A779D"/>
</svg>
