<?xml version="1.0" encoding="UTF-8" standalone="no"?>
<svg
   xmlns:dc="http://purl.org/dc/elements/1.1/"
   xmlns:cc="http://creativecommons.org/ns#"
   xmlns:rdf="http://www.w3.org/1999/02/22-rdf-syntax-ns#"
   xmlns:svg="http://www.w3.org/2000/svg"
   xmlns="http://www.w3.org/2000/svg"
   id="svg81"
   version="1.2"
   viewBox="0 0 225.00045 59.676"
   height="59.675999pt"
   width="225.00044pt">
  <metadata
     id="metadata87">
    <rdf:RDF>
      <cc:Work
         rdf:about="">
        <dc:format>image/svg+xml</dc:format>
        <dc:type
           rdf:resource="http://purl.org/dc/dcmitype/StillImage" />
        <dc:title></dc:title>
      </cc:Work>
    </rdf:RDF>
  </metadata>
  <defs
     id="defs85" />
  <path
     style="fill:#009ad8;fill-opacity:1;fill-rule:nonzero;stroke:none;stroke-width:1.36928"
     d="M 11.649577,34.932684 H -2.614606e-7 V 23.288456 H 11.649577 Z m 0,0"
     id="path2" />
  <path
     style="fill:#009ad8;fill-opacity:1;fill-rule:nonzero;stroke:none;stroke-width:1.36928"
     d="M 34.938032,11.644229 H 23.288456 V -2.614606e-7 h 11.649576 z m 0,0"
     id="path4" />
  <path
     style="fill:#009ad8;fill-opacity:1;fill-rule:nonzero;stroke:none;stroke-width:1.36928"
     d="M 34.938032,58.22114 H 23.288456 V 46.576911 h 11.649576 z m 0,0"
     id="path6" />
  <path
     style="fill:#ba2341;fill-opacity:1;fill-rule:nonzero;stroke:none;stroke-width:1.36928"
     d="M 58.22114,34.932684 H 46.582261 V 23.288456 H 58.22114 Z m 0,0"
     id="path8" />
  <path
     style="fill:#009ad8;fill-opacity:1;fill-rule:nonzero;stroke:none;stroke-width:1.36928"
     d="M 4.4127192,12.644444 15.05673,23.288456 h 8.231726 V 15.05673 L 12.644444,4.4127192 4.4127192,12.644444 m 49.4010518,0 L 45.582045,4.4127192 34.938032,15.05673 v 8.231726 h 8.231726 L 53.813771,12.644444 m -10.644013,22.28824 h -8.231726 v 8.237074 L 45.582045,53.813771 53.813771,45.582045 43.169758,34.932684 M 4.4127192,45.582045 12.644444,53.813771 23.288456,43.169758 V 34.932684 H 15.05673 Z m 0,0"
     id="path10" />
  <path
     style="fill:#ba2341;fill-opacity:1;fill-rule:nonzero;stroke:none;stroke-width:1.36928"
     d="m 78.760342,23.090553 -1.128588,1.70625 c -0.631156,-0.46534 -1.294394,-0.700685 -1.989742,-0.700685 -0.845092,0 -1.66881,0.411853 -2.118098,1.075098 -0.481384,0.716732 -0.700688,1.759738 -0.700688,3.20925 0,1.706251 0.144418,2.65298 0.524174,3.33762 0.497432,0.914636 1.32649,1.396023 2.401594,1.396023 0.679286,0 1.273006,-0.197903 1.88276,-0.609757 0.06956,-0.05348 0.160466,-0.123016 0.251386,-0.197905 l 1.144636,1.577882 c -0.98417,0.807661 -2.043226,1.166028 -3.460636,1.166028 -1.722308,0 -3.048798,-0.55627 -4.070404,-1.722298 -1.005572,-1.128587 -1.503004,-2.631585 -1.503004,-4.460857 0,-1.561834 0.267448,-2.797396 0.839752,-3.872494 0.968136,-1.813227 2.765316,-2.888325 4.771092,-2.888325 1.235556,0 2.476466,0.395807 3.155766,0.98417 m -0.861154,-3.72808 -2.904366,2.171593 -2.979252,-2.171593 0.738124,-1.182073 2.241128,1.235562 2.166242,-1.235562 z m 0,0"
     id="path12" />
  <path
     style="fill:#ba2341;fill-opacity:1;fill-rule:nonzero;stroke:none;stroke-width:1.36928"
     d="m 86.419751,32.397377 0.930672,1.433465 c -1.059042,0.861148 -2.171582,1.273002 -3.460636,1.273002 -2.636932,0 -4.337837,-1.861365 -4.337837,-4.74969 0,-1.647415 0.336979,-2.743908 1.144635,-3.642498 0.754172,-0.839753 1.66881,-1.235562 2.888318,-1.235562 1.059056,0 2.059274,0.358367 2.65298,0.968124 0.845106,0.86115 1.219522,2.09671 1.219522,4.016911 0,0.197903 0,0.267438 0,0.55627 h -5.30596 v 0.06953 c 0,1.41742 0.695334,2.22508 1.930904,2.22508 0.829044,0 1.599264,-0.304878 2.337402,-0.914635 m -4.23621,-3.139717 h 2.78135 v -0.106981 c 0,-0.679292 -0.06956,-1.037659 -0.288836,-1.379979 -0.229998,-0.358365 -0.572318,-0.534874 -1.053702,-0.534874 -0.914638,0 -1.438812,0.716733 -1.438812,1.989734 z m 0,0"
     id="path14" />
  <path
     style="fill:#ba2341;fill-opacity:1;fill-rule:nonzero;stroke:none;stroke-width:1.36928"
     d="m 95.45378,26.267709 -0.786267,1.609974 c -0.914625,-0.46534 -1.577876,-0.663245 -2.257162,-0.663245 -0.700688,0 -1.166038,0.358366 -1.166038,0.89859 0,0.465341 0.29953,0.716733 1.144636,0.930683 l 1.11254,0.288832 c 1.128587,0.288833 1.508344,0.625804 1.829275,1.037658 0.34232,0.433248 0.502786,0.952076 0.502786,1.561835 0,1.898806 -1.577889,3.193203 -3.925985,3.193203 -1.133942,0 -2.369498,-0.358367 -3.717376,-1.059052 l 0.866494,-1.75974 c 0.73277,0.449295 2.005776,1.043007 3.048784,1.043007 0.679286,0 1.214168,-0.449295 1.214168,-1.043007 0,-0.625803 -0.443948,-0.946728 -1.41207,-1.128585 l -1.075104,-0.197905 c -0.615108,-0.106981 -1.363926,-0.534874 -1.684858,-0.930681 -0.326272,-0.395808 -0.524174,-1.059053 -0.524174,-1.647415 0,-1.79718 1.417424,-2.9953 3.55157,-2.9953 1.470908,0 2.439029,0.443947 3.278781,0.861148 z m 0,0"
     id="path16" />
  <path
     style="fill:#ba2341;fill-opacity:1;fill-rule:nonzero;stroke:none;stroke-width:1.36928"
     d="m 97.25096,22.106383 2.417642,-0.593712 c 0.106941,0.679292 0.144418,1.759739 0.144418,2.979254 V 34.836407 H 97.411426 V 24.491925 c 0,-0.807662 -0.01602,-1.433465 -0.160466,-2.385542 m 4.96364,3.514128 h 2.88833 l -2.92041,3.872495 3.60505,5.343401 h -2.83483 l -3.086236,-5.198985 z m 0,0"
     id="path18" />
  <path
     style="fill:#ba2341;fill-opacity:1;fill-rule:nonzero;stroke:none;stroke-width:1.36928"
     d="m 106.09246,26.749098 c 0.58835,-0.374414 0.83975,-0.481389 1.48694,-0.754175 0.89325,-0.358365 1.66881,-0.534875 2.50856,-0.534875 1.54579,0 2.5995,0.572316 2.95786,1.593928 0.12844,0.374412 0.18186,0.663245 0.16581,1.652763 l -0.0589,3.08088 c 0,0.05348 0,0.106982 0,0.160463 0,0.989519 0.16581,1.36393 0.86649,1.88276 l -1.27836,1.470905 c -0.55627,-0.229995 -1.0537,-0.64185 -1.28904,-1.11254 -0.34232,0.326275 -0.37441,0.358367 -0.55627,0.486737 -0.4493,0.320925 -1.09649,0.502783 -1.84532,0.502783 -2.04323,0 -3.15577,-1.043007 -3.15577,-2.87228 0,-2.150196 1.48696,-3.155761 4.41273,-3.155761 0.17651,0 0.28348,0 0.53488,0.0214 v -0.379769 c 0,-1.021611 -0.19792,-1.363931 -1.0751,-1.363931 -0.77022,0 -1.66881,0.379761 -2.65298,1.043006 l -1.02161,-1.722296 m 5.23641,-5.51991 0.98417,1.75439 -3.819,1.700902 -0.70069,-1.251607 3.53552,-2.203685 m -0.52417,9.590308 h -0.10694 c -1.66881,0 -2.24113,0.304878 -2.24113,1.401371 0,0.716734 0.44929,1.19812 1.05906,1.19812 0.44929,0 0.89859,-0.229995 1.25694,-0.625803 z m 0,0"
     id="path20" />
  <path
     style="fill:#ba2341;fill-opacity:1;fill-rule:nonzero;stroke:none;stroke-width:1.36928"
     d="m 121.35244,25.850508 2.13414,-0.374414 c 0.0909,0.320925 0.14442,0.572317 0.16047,0.861149 0.41185,-0.502782 1.32649,-0.861149 2.25717,-0.861149 0.64719,0 1.31045,0.21395 1.81322,0.55627 0.98417,0.663245 1.70626,1.845319 1.70626,3.963424 0,1.973689 -0.30489,2.995299 -1.27301,4.000864 -0.63115,0.663245 -1.45486,1.037658 -2.46042,1.037658 -0.71673,0 -1.39603,-0.181858 -1.92021,-0.486736 0.0374,0.219298 0.0374,0.754173 0.0374,0.754173 v 2.87228 l -2.31066,0.609756 V 28.166516 c 0,-1.203468 -0.0214,-1.54044 -0.14442,-2.316008 m 2.47646,6.744773 c 0.32094,0.267436 0.83976,0.540223 1.32649,0.540223 1.18208,0 1.64743,-0.807662 1.64743,-2.904371 0,-0.882544 -0.0696,-1.58323 -0.23536,-2.027176 -0.17651,-0.502783 -0.55091,-0.775569 -1.14463,-0.775569 -0.59371,0 -1.16603,0.25674 -1.59393,0.700686 z m 0,0"
     id="path22" />
  <path
     style="fill:#ba2341;fill-opacity:1;fill-rule:nonzero;stroke:none;stroke-width:1.36928"
     d="m 130.98019,26.016318 2.15019,-0.572315 c 0.2193,0.374411 0.34232,0.786265 0.37976,1.305095 0.34232,-0.465342 0.91463,-0.952079 1.36394,-1.166029 0.1979,-0.09093 0.51882,-0.139066 0.78626,-0.139066 0.35836,0 0.51882,0.0321 0.89859,0.192555 l -0.66325,2.118104 c -0.23534,-0.12837 -0.43325,-0.181858 -0.70069,-0.181858 -0.54022,0 -1.0216,0.251392 -1.4709,0.775569 v 6.488034 h -2.40158 v -6.129668 c 0,-1.24091 -0.14442,-2.171591 -0.34232,-2.690421 z m 0,0"
     id="path24" />
  <path
     style="fill:#ba2341;fill-opacity:1;fill-rule:nonzero;stroke:none;stroke-width:1.36928"
     d="m 137.52706,25.871903 2.36949,-0.449295 v 5.899669 c 0,0.823709 0.0535,1.256957 0.19255,1.508349 0.12844,0.246041 0.48674,0.427899 0.83975,0.427899 0.59372,0 1.31045,-0.427899 1.49231,-0.877194 v -6.455942 l 2.29461,-0.481386 v 7.006861 c 0,0.609758 0.19791,1.24091 0.55627,1.66881 l -1.7009,0.968123 c -0.30489,-0.21395 -0.55627,-0.518828 -0.72208,-0.89859 -0.58836,0.577665 -1.44952,0.882545 -2.41764,0.882545 -1.28905,0 -2.40159,-0.609758 -2.70646,-1.492302 -0.14442,-0.411853 -0.1979,-0.893241 -0.1979,-1.829273 v -5.878274 m 3.74411,-4.75504 c 1.12859,0 2.06462,0.952078 2.06462,2.10206 0,1.144632 -0.95208,2.09671 -2.10205,2.09671 -1.12324,0 -2.03787,-0.952078 -2.03787,-2.09671 0,-1.149982 0.96276,-2.10206 2.0753,-2.10206 m -1.0216,2.10206 c 0,0.55092 0.44929,1.000215 0.98417,1.000215 0.56161,0 1.00556,-0.449295 1.00556,-1.000215 0,-0.55627 -0.4279,-1.005565 -0.96813,-1.005565 -0.57231,0 -1.0216,0.449295 -1.0216,1.005565 z m 0,0"
     id="path26" />
  <path
     style="fill:#ba2341;fill-opacity:1;fill-rule:nonzero;stroke:none;stroke-width:1.36928"
     d="m 146.83387,26.085853 2.16624,-0.593712 c 0.16047,0.251392 0.23536,0.47069 0.32628,0.936032 0.62581,-0.609759 1.39603,-0.936032 2.24112,-0.936032 0.74884,0 1.37999,0.251392 1.86138,0.754173 0.12843,0.12837 0.18185,0.197904 0.3637,0.449295 0.83976,-0.861148 1.59394,-1.203468 2.5995,-1.203468 0.71138,0 1.39602,0.219298 1.80787,0.577665 0.52419,0.443947 0.68464,0.98417 0.68464,2.241126 v 6.525475 h -2.33204 v -6.060134 c 0,-1.091145 -0.12844,-1.310444 -0.75418,-1.310444 -0.4493,0 -1.0751,0.304879 -1.59927,0.77022 v 6.600358 h -2.27323 v -5.969205 c 0,-1.149981 -0.1658,-1.417419 -0.8237,-1.417419 -0.4493,0 -1.05906,0.235345 -1.57788,0.700686 v 6.685938 h -2.35345 v -6.402454 c 0,-1.32649 -0.0856,-1.898805 -0.33698,-2.3481 z m 0,0"
     id="path28" />
  <path
     style="fill:#ba2341;fill-opacity:1;fill-rule:nonzero;stroke:none;stroke-width:1.36928"
     d="m 160.06668,25.818414 2.45507,-0.288831 1.59394,5.343399 c 0.16581,0.55627 0.48673,1.904155 0.48673,1.904155 0,0 0.18186,-1.02696 0.28883,-1.470905 0.13907,-0.577665 0.16047,-0.663245 0.35837,-1.273003 l 1.37997,-4.359231 h 2.52997 l -3.33762,9.306824 c -0.6258,1.775785 -1.09649,2.546005 -1.75439,3.032742 -0.60976,0.443946 -1.40138,0.732778 -2.22508,0.839753 l -0.82371,-1.57788 c 0.51882,-0.144417 1.12859,-0.358367 1.48695,-0.609758 0.26744,-0.197904 0.48139,-0.449295 0.6793,-0.754174 0.23533,-0.374413 0.30487,-0.534875 0.52417,-1.075098 h -0.60975 c -0.14442,-0.4279 -0.21931,-0.609758 -0.37977,-1.0751 -0.1765,-0.55627 -0.46534,-1.470905 -0.48139,-1.508346 z m 0,0"
     id="path30" />
  <path
     style="fill:#ba2341;fill-opacity:1;fill-rule:nonzero;stroke:none;stroke-width:1.36928"
     d="m 176.45524,26.267709 -0.78625,1.609974 c -0.91464,-0.46534 -1.57789,-0.663245 -2.26253,-0.663245 -0.69533,0 -1.16067,0.358366 -1.16067,0.89859 0,0.465341 0.30487,0.716733 1.14462,0.930683 l 1.11254,0.288832 c 1.12859,0.288833 1.50301,0.625804 1.82928,1.037658 0.34232,0.433248 0.50278,0.952076 0.50278,1.561835 0,1.898806 -1.58323,3.193203 -3.92598,3.193203 -1.13393,0 -2.3695,-0.358367 -3.71204,-1.059052 l 0.8558,-1.75974 c 0.73814,0.449295 2.01113,1.043007 3.0488,1.043007 0.68464,0 1.21951,-0.449295 1.21951,-1.043007 0,-0.625803 -0.44929,-0.946728 -1.41207,-1.128585 l -1.08045,-0.197905 c -0.60975,-0.106981 -1.35858,-0.534874 -1.68485,-0.930681 -0.32093,-0.395808 -0.51884,-1.059053 -0.51884,-1.647415 0,-1.79718 1.41743,-2.9953 3.55157,-2.9953 1.46557,0 2.43903,0.443947 3.27878,0.861148 z m 0,0"
     id="path32" />
  <path
     style="fill:#ba2341;fill-opacity:1;fill-rule:nonzero;stroke:none;stroke-width:1.36928"
     d="m 180.77703,21.566158 c 0.0909,0.502783 0.12844,1.096495 0.12844,2.385543 v 7.156626 c 0,1.577882 0.016,1.791832 0.16047,2.043224 0.0909,0.160461 0.28883,0.251391 0.48674,0.251391 0.0856,0 0.13906,0 0.26743,-0.03744 l 0.41185,1.433465 c -0.41185,0.165811 -0.91462,0.251391 -1.43346,0.251391 -1.0216,0 -1.85066,-0.481388 -2.13414,-1.251608 -0.18187,-0.47069 -0.21931,-0.754173 -0.21931,-2.064616 v -6.85175 c 0,-1.19812 -0.032,-1.936246 -0.12296,-2.759954 z m 0,0"
     id="path34" />
  <path
     style="fill:#ba2341;fill-opacity:1;fill-rule:nonzero;stroke:none;stroke-width:1.36928"
     d="m 186.78904,25.476094 c 1.30508,0 2.3267,0.449295 3.11831,1.379979 0.73279,0.861148 1.05906,1.866713 1.05906,3.353665 0,1.577881 -0.35837,2.652979 -1.14998,3.551569 -0.70069,0.786267 -1.61532,1.273003 -3.02739,1.273003 -2.49252,0 -4.12389,-1.866713 -4.12389,-4.749689 0,-2.888325 1.64742,-4.808527 4.12389,-4.808527 m 0.032,1.775785 c -0.57232,0 -1.03767,0.358367 -1.23557,0.930683 -0.16046,0.486736 -0.25139,1.133935 -0.25139,2.048571 0,1.053704 0.10694,1.845319 0.30488,2.310659 0.21395,0.502784 0.75418,0.754175 1.21951,0.754175 1.03766,0 1.48696,-0.930683 1.48696,-3.102275 0,-1.235561 -0.16047,-2.043223 -0.48139,-2.455076 -0.23535,-0.310228 -0.60976,-0.486737 -1.043,-0.486737 z m 0,0"
     id="path36" />
  <path
     style="fill:#ba2341;fill-opacity:1;fill-rule:nonzero;stroke:none;stroke-width:1.36928"
     d="m 191.41036,25.797019 2.46041,-0.304878 1.32649,4.145281 c 0.19792,0.609757 0.46535,1.615322 0.59372,2.203685 0.0696,-0.534875 0.26744,-1.417419 0.55627,-2.332055 l 1.23556,-3.851099 h 2.50856 l -3.35367,9.178454 h -1.98972 z m 0,0"
     id="path38" />
  <path
     style="fill:#ba2341;fill-opacity:1;fill-rule:nonzero;stroke:none;stroke-width:1.36928"
     d="m 200.82951,26.749098 c 0.58835,-0.374414 0.83975,-0.481389 1.48694,-0.754175 0.89859,-0.358365 1.66881,-0.534875 2.50856,-0.534875 1.54044,0 2.5995,0.572316 2.96322,1.593928 0.12296,0.374412 0.1765,0.663245 0.16045,1.652763 l -0.0589,3.08088 c 0,0.05348 0,0.106982 0,0.160463 0,0.989519 0.16046,1.36393 0.86114,1.88276 l -1.273,1.470905 c -0.55092,-0.229995 -1.0537,-0.64185 -1.28904,-1.11254 -0.34232,0.326275 -0.37442,0.358367 -0.55627,0.486737 -0.4493,0.320925 -1.09649,0.502783 -1.84533,0.502783 -2.04322,0 -3.15576,-1.043007 -3.15576,-2.87228 0,-2.150196 1.48695,-3.155761 4.41272,-3.155761 0.17652,0 0.28348,0 0.53488,0.0214 v -0.379769 c 0,-1.021611 -0.19791,-1.363931 -1.0751,-1.363931 -0.77022,0 -1.66881,0.379761 -2.65298,1.043006 l -1.02161,-1.722296 m 5.23108,-5.51991 0.98951,1.75439 -3.81901,1.700902 -0.70068,-1.251607 3.53018,-2.203685 m -0.51348,9.590308 h -0.11228 c -1.66881,0 -2.24113,0.304878 -2.24113,1.401371 0,0.716734 0.44929,1.19812 1.05905,1.19812 0.44929,0 0.89859,-0.229995 1.25695,-0.625803 z m 0,0"
     id="path40" />
  <path
     style="fill:#009ad8;fill-opacity:1;fill-rule:nonzero;stroke:none;stroke-width:1.36928"
     d="M 69.956296,46.603656 H 76.7706 v 1.647415 l -4.054356,5.81409 h 4.214822 l -0.572318,1.663461 h -6.76082 v -1.486951 l 4.32179,-5.95316 h -3.963422 z m 0,0"
     id="path42" />
  <path
     style="fill:#009ad8;fill-opacity:1;fill-rule:nonzero;stroke:none;stroke-width:1.36928"
     d="m 85.735111,42.838136 v 9.54217 c 0,2.257171 0.181854,2.98995 0.34232,3.348316 h -2.155548 c -0.06956,-0.139067 -0.106941,-0.283483 -0.139064,-0.534875 -0.59372,0.518829 -1.294408,0.77022 -2.118112,0.77022 -2.326707,0 -3.802955,-1.807876 -3.802955,-4.664109 0,-2.86693 1.599277,-4.840618 3.925972,-4.840618 0.668605,0 1.187425,0.160461 1.636727,0.518828 -0.03738,-0.197903 -0.0749,-0.823707 -0.0749,-1.358582 v -3.155763 l 2.385545,0.374413 m -2.348109,6.135015 c -0.449288,-0.395807 -0.877188,-0.59371 -1.310442,-0.59371 -1.07509,0 -1.54044,0.89859 -1.54044,2.941812 0,1.973688 0.411852,2.615538 1.66881,2.615538 0.443948,0 0.946734,-0.304879 1.182072,-0.588362 z m 0,0"
     id="path44" />
  <path
     style="fill:#009ad8;fill-opacity:1;fill-rule:nonzero;stroke:none;stroke-width:1.36928"
     d="m 87.944143,46.908534 2.150194,-0.572316 c 0.21395,0.374413 0.34232,0.786266 0.374416,1.305095 0.34232,-0.465342 0.914638,-0.946728 1.363926,-1.166027 0.197902,-0.08558 0.518834,-0.139068 0.791621,-0.139068 0.358368,0 0.518821,0.0321 0.893237,0.197903 l -0.663239,2.112757 c -0.229998,-0.123016 -0.4279,-0.176509 -0.700687,-0.176509 -0.534882,0 -1.02162,0.251392 -1.470908,0.77022 v 6.488033 h -2.401594 v -6.129666 c 0,-1.235562 -0.139064,-2.171593 -0.336966,-2.690422 z m 0,0"
     id="path46" />
  <path
     style="fill:#009ad8;fill-opacity:1;fill-rule:nonzero;stroke:none;stroke-width:1.36928"
     d="m 93.875904,47.641313 c 0.593707,-0.374412 0.845106,-0.481387 1.492296,-0.748825 0.89325,-0.358367 1.66347,-0.540223 2.508576,-0.540223 1.54044,0 2.599484,0.572316 2.957854,1.593926 0.12843,0.379762 0.18185,0.663245 0.16582,1.652765 l -0.0589,3.086228 c 0,0.04814 0,0.106982 0,0.160462 0,0.98417 0.1658,1.358583 0.86114,1.88276 l -1.273,1.470906 c -0.556265,-0.235345 -1.053711,-0.647198 -1.289049,-1.11254 -0.34232,0.320925 -0.379756,0.358367 -0.55627,0.481388 -0.449302,0.326274 -1.096492,0.502782 -1.845324,0.502782 -2.048566,0 -3.155765,-1.037657 -3.155765,-2.86693 0,-2.155546 1.486955,-3.155761 4.407383,-3.155761 0.181854,0 0.288822,0 0.540222,0.01605 v -0.374412 c 0,-1.021611 -0.197902,-1.363931 -1.075104,-1.363931 -0.77022,0 -1.66881,0.374413 -2.658334,1.037658 l -1.021565,-1.722301 m 4.717594,4.075748 h -0.106941 c -1.668809,0 -2.241127,0.304878 -2.241127,1.396023 0,0.716732 0.449288,1.203468 1.059055,1.203468 0.449289,0 0.893237,-0.235345 1.251604,-0.631151 z m 0,0"
     id="path48" />
  <path
     style="fill:#009ad8;fill-opacity:1;fill-rule:nonzero;stroke:none;stroke-width:1.36928"
     d="m 102.02205,46.694585 2.45508,-0.304879 1.32649,4.139932 c 0.1979,0.609758 0.46534,1.615323 0.59371,2.203684 0.0696,-0.534874 0.26743,-1.412069 0.55627,-2.326706 l 1.23557,-3.856448 h 2.50856 l -3.35367,9.178454 h -1.98974 z m 0,0"
     id="path50" />
  <path
     style="fill:#009ad8;fill-opacity:1;fill-rule:nonzero;stroke:none;stroke-width:1.36928"
     d="m 115.28695,46.368311 c 1.31044,0 2.33205,0.449295 3.12367,1.385325 0.73278,0.8558 1.05906,1.861365 1.05906,3.353667 0,1.577881 -0.35837,2.652979 -1.14999,3.546221 -0.70069,0.791615 -1.61532,1.273002 -3.03274,1.273002 -2.48717,0 -4.11853,-1.861365 -4.11853,-4.74969 0,-2.888325 1.64741,-4.808525 4.11853,-4.808525 m 0.0374,1.775785 c -0.57232,0 -1.03765,0.358365 -1.23555,0.93603 -0.16047,0.481388 -0.25139,1.128587 -0.25139,2.043223 0,1.059052 0.10694,1.845318 0.30487,2.31066 0.21395,0.502782 0.75417,0.754173 1.21952,0.754173 1.03766,0 1.48694,-0.930681 1.48694,-3.102274 0,-1.235562 -0.16045,-2.043222 -0.48138,-2.455077 -0.23534,-0.304878 -0.60975,-0.486735 -1.04301,-0.486735 z m 0,0"
     id="path52" />
  <path
     style="fill:#009ad8;fill-opacity:1;fill-rule:nonzero;stroke:none;stroke-width:1.36928"
     d="m 125.70631,46.534121 -0.60976,1.593928 h -1.54044 v 4.680157 c 0,1.166026 0.21395,1.470905 1.04301,1.470905 0.21395,0 0.4279,-0.05348 0.8558,-0.181857 l 0.30489,1.438813 c -0.69535,0.283484 -1.32649,0.411854 -1.9523,0.411854 -1.21952,0 -2.20369,-0.540224 -2.47648,-1.347885 -0.13906,-0.395807 -0.16046,-0.572315 -0.16046,-1.417419 v -5.054568 h -0.91463 v -1.561834 h 0.91463 c 0,-0.893242 0,-1.502999 0.0909,-2.187639 l 2.43903,-0.609758 c -0.0909,0.845103 -0.14442,1.829273 -0.14442,2.765303 z m 0,0"
     id="path54" />
  <path
     style="fill:#009ad8;fill-opacity:1;fill-rule:nonzero;stroke:none;stroke-width:1.36928"
     d="m 126.71188,46.924581 2.13415,-0.609758 c 0.21395,0.379762 0.34232,0.775568 0.34232,1.149981 0.55627,-0.395808 0.66325,-0.465341 1.05905,-0.684639 0.48139,-0.246044 1.11254,-0.390459 1.64742,-0.390459 1.02161,0 1.9202,0.534875 2.20904,1.32649 0.12296,0.34232 0.1765,0.732778 0.1765,1.310443 v 6.701983 h -2.3695 v -5.969204 c 0,-1.037657 -0.1765,-1.342537 -0.8023,-1.342537 -0.48674,0 -1.11254,0.320925 -1.66881,0.823708 v 6.488033 h -2.4016 v -6.648496 c 0,-0.791615 -0.11228,-1.545788 -0.32627,-2.155545 z m 0,0"
     id="path56" />
  <path
     style="fill:#009ad8;fill-opacity:1;fill-rule:nonzero;stroke:none;stroke-width:1.36928"
     d="m 139.44725,42.121403 0.98417,1.75439 -3.819,1.706252 -0.70069,-1.256957 3.53552,-2.203685 m -2.9953,4.589228 2.4016,-0.374413 v 9.392404 h -2.4016 z m 0,0"
     id="path58" />
  <path
     style="fill:#009ad8;fill-opacity:1;fill-rule:nonzero;stroke:none;stroke-width:1.36928"
     d="m 146.97294,46.748071 2.13416,-0.37976 c 0.0909,0.326274 0.14441,0.577665 0.1658,0.861148 0.41185,-0.497433 1.32649,-0.861148 2.25718,-0.861148 0.6472,0 1.31044,0.219299 1.81323,0.55627 0.98417,0.663245 1.7009,1.850667 1.7009,3.963423 0,1.973688 -0.30488,2.9953 -1.273,4.000865 -0.62581,0.663245 -1.45486,1.037657 -2.46044,1.037657 -0.71138,0 -1.39602,-0.176509 -1.91484,-0.481387 0.0374,0.21395 0.0374,0.754173 0.0374,0.754173 v 2.86693 l -2.31601,0.609761 V 49.058731 c 0,-1.19812 -0.016,-1.54044 -0.14442,-2.31066 m 2.47648,6.739425 c 0.32092,0.272786 0.84511,0.540225 1.32649,0.540225 1.18743,0 1.65276,-0.807662 1.65276,-2.904372 0,-0.877195 -0.0749,-1.577881 -0.23535,-2.027176 -0.18185,-0.502782 -0.55627,-0.77022 -1.14997,-0.77022 -0.58837,0 -1.16069,0.251391 -1.59393,0.700686 z m 0,0"
     id="path60" />
  <path
     style="fill:#009ad8;fill-opacity:1;fill-rule:nonzero;stroke:none;stroke-width:1.36928"
     d="m 160.42504,46.368311 c 1.31045,0 2.33207,0.449295 3.11833,1.385325 0.73277,0.8558 1.05905,1.861365 1.05905,3.353667 0,1.577881 -0.35836,2.652979 -1.14463,3.546221 -0.70068,0.791615 -1.62068,1.273002 -3.03275,1.273002 -2.49251,0 -4.12388,-1.861365 -4.12388,-4.74969 0,-2.888325 1.64742,-4.808525 4.12388,-4.808525 m 0.032,1.775785 c -0.57231,0 -1.03765,0.358365 -1.23555,0.93603 -0.16047,0.481388 -0.2514,1.128587 -0.2514,2.043223 0,1.059052 0.10694,1.845318 0.30488,2.31066 0.21931,0.502782 0.75417,0.754173 1.21951,0.754173 1.04301,0 1.48696,-0.930681 1.48696,-3.102274 0,-1.235562 -0.16047,-2.043222 -0.48139,-2.455077 -0.23,-0.304878 -0.60975,-0.486735 -1.04301,-0.486735 z m 0,0"
     id="path62" />
  <path
     style="fill:#009ad8;fill-opacity:1;fill-rule:nonzero;stroke:none;stroke-width:1.36928"
     d="m 166.16426,46.924581 2.38554,-0.572316 v 9.124966 c 0,1.743693 -0.35837,2.43903 -0.68464,2.856233 -0.4279,0.550921 -1.03766,1.000219 -1.86137,1.342539 l -1.00556,-1.326493 c 0.37976,-0.30488 0.70069,-0.700686 0.87719,-1.043006 0.1979,-0.390459 0.28884,-0.893242 0.28884,-1.75439 v -8.627533 m 1.21951,-4.589228 c 0.80766,0 1.48695,0.663245 1.48695,1.470907 0,0.823706 -0.67929,1.508346 -1.50299,1.508346 -0.82906,0 -1.47091,-0.663245 -1.47091,-1.470905 0,-0.823708 0.66324,-1.508348 1.48695,-1.508348 z m 0,0"
     id="path64" />
  <path
     style="fill:#009ad8;fill-opacity:1;fill-rule:nonzero;stroke:none;stroke-width:1.36928"
     d="m 172.02649,42.356748 c 0.80765,0 1.45486,0.663245 1.45486,1.486953 0,0.823707 -0.66326,1.486952 -1.48696,1.486952 -0.80766,0 -1.47625,-0.663245 -1.47625,-1.486952 0,-0.823708 0.68464,-1.486953 1.50835,-1.486953 m -1.23556,4.353883 2.40158,-0.374413 v 9.392404 h -2.40158 z m 0,0"
     id="path66" />
  <path
     style="fill:#009ad8;fill-opacity:1;fill-rule:nonzero;stroke:none;stroke-width:1.36928"
     d="m 181.69167,47.159926 -0.78627,1.615322 c -0.91462,-0.47069 -1.57787,-0.663245 -2.26251,-0.663245 -0.69534,0 -1.16603,0.358366 -1.16603,0.893241 0,0.465342 0.30487,0.716732 1.14998,0.936032 l 1.11254,0.283483 c 1.12859,0.288832 1.50834,0.625804 1.82928,1.043007 0.34232,0.4279 0.50278,0.946728 0.50278,1.556485 0,1.904155 -1.57789,3.193204 -3.93134,3.193204 -1.12859,0 -2.36414,-0.358366 -3.71202,-1.059053 l 0.86114,-1.75439 c 0.73278,0.443947 2.01113,1.037659 3.04878,1.037659 0.68464,0 1.21953,-0.449295 1.21953,-1.037659 0,-0.631151 -0.44931,-0.952076 -1.41743,-1.133934 l -1.07509,-0.192555 c -0.60977,-0.106982 -1.36394,-0.540224 -1.68486,-0.936032 -0.32093,-0.390458 -0.51883,-1.053703 -0.51883,-1.647415 0,-1.79183 1.41742,-2.9953 3.55157,-2.9953 1.47091,0 2.43903,0.449295 3.27878,0.86115 m -0.55627,-3.749474 -2.90436,2.171593 -2.97926,-2.171593 0.73813,-1.182074 2.24113,1.235562 2.17159,-1.235562 z m 0,0"
     id="path68" />
  <path
     style="fill:#009ad8;fill-opacity:1;fill-rule:nonzero;stroke:none;stroke-width:1.36928"
     d="m 188.32948,46.534121 -0.60976,1.593928 h -1.54044 v 4.680157 c 0,1.166026 0.21395,1.470905 1.03766,1.470905 0.21395,0 0.4279,-0.05348 0.86115,-0.181857 l 0.30487,1.438813 c -0.70069,0.283484 -1.32649,0.411854 -1.95229,0.411854 -1.21951,0 -2.20903,-0.540224 -2.47647,-1.347885 -0.14442,-0.395807 -0.16582,-0.572315 -0.16582,-1.417419 v -5.054568 h -0.91464 v -1.561834 h 0.91464 c 0,-0.893242 0,-1.502999 0.0909,-2.187639 l 2.43903,-0.609758 c -0.0909,0.845103 -0.13906,1.829273 -0.13906,2.765303 h 2.15019 m -0.95207,-0.417201 -0.75417,-0.802314 c 0.60975,-0.16581 1.0216,-0.486735 1.0216,-0.829055 0,-0.197904 -0.0696,-0.304879 -0.35837,-0.465341 -0.39046,-0.229997 -0.57231,-0.534875 -0.57231,-1.021612 0,-0.679291 0.55627,-1.235561 1.25695,-1.235561 0.83976,0 1.44951,0.732779 1.44951,1.738344 0,1.256955 -0.80766,2.31066 -2.04321,2.615539 z m 0,0"
     id="path70" />
  <path
     style="fill:#009ad8;fill-opacity:1;fill-rule:nonzero;stroke:none;stroke-width:1.36928"
     d="m 193.47497,46.368311 c 1.31044,0 2.33206,0.449295 3.11833,1.385325 0.73812,0.8558 1.05904,1.861365 1.05904,3.353667 0,1.577881 -0.35837,2.652979 -1.14462,3.546221 -0.70069,0.791615 -1.61533,1.273002 -3.03275,1.273002 -2.49251,0 -4.12389,-1.861365 -4.12389,-4.74969 0,-2.888325 1.65276,-4.808525 4.12389,-4.808525 m 0.0374,1.775785 c -0.57767,0 -1.04301,0.358365 -1.24091,0.93603 -0.16047,0.481388 -0.2514,1.128587 -0.2514,2.043223 0,1.059052 0.11228,1.845318 0.30488,2.31066 0.21929,0.502782 0.75418,0.754173 1.21951,0.754173 1.04301,0 1.49231,-0.930681 1.49231,-3.102274 0,-1.235562 -0.16582,-2.043222 -0.48674,-2.455077 -0.22999,-0.304878 -0.60975,-0.486735 -1.03765,-0.486735 z m 0,0"
     id="path72" />
  <path
     style="fill:#009ad8;fill-opacity:1;fill-rule:nonzero;stroke:none;stroke-width:1.36928"
     d="m 198.10164,46.694585 2.45508,-0.304879 1.32649,4.139932 c 0.1979,0.609758 0.47069,1.615323 0.59371,2.203684 0.0696,-0.534874 0.27278,-1.412069 0.55627,-2.326706 l 1.23555,-3.856448 h 2.51392 l -3.35367,9.178454 h -1.98973 z m 0,0"
     id="path74" />
  <path
     style="fill:#009ad8;fill-opacity:1;fill-rule:nonzero;stroke:none;stroke-width:1.36928"
     d="m 207.60636,46.924581 2.13416,-0.609758 c 0.21395,0.379762 0.34232,0.775568 0.34232,1.149981 0.55092,-0.395808 0.66324,-0.465341 1.0537,-0.684639 0.48674,-0.246044 1.11254,-0.390459 1.65277,-0.390459 1.0216,0 1.92019,0.534875 2.20369,1.32649 0.12844,0.34232 0.18185,0.732778 0.18185,1.310443 v 6.701983 h -2.3695 v -5.969204 c 0,-1.037657 -0.18185,-1.342537 -0.80765,-1.342537 -0.4814,0 -1.1072,0.320925 -1.66881,0.823708 v 6.488033 h -2.4016 v -6.648496 c 0,-0.791615 -0.10694,-1.545788 -0.32093,-2.155545 z m 0,0"
     id="path76" />
  <path
     style="fill:#009ad8;fill-opacity:1;fill-rule:nonzero;stroke:none;stroke-width:1.36928"
     d="m 217.07366,47.641313 c 0.59371,-0.374412 0.84509,-0.481387 1.48694,-0.748825 0.89859,-0.358367 1.66881,-0.540223 2.51392,-0.540223 1.54044,0 2.59949,0.572316 2.95786,1.593926 0.12296,0.379762 0.1765,0.663245 0.16047,1.652765 l -0.0535,3.086228 c 0,0.04814 0,0.106982 0,0.160462 0,0.98417 0.16046,1.358583 0.86115,1.88276 l -1.273,1.470906 c -0.55627,-0.235345 -1.05906,-0.647198 -1.28904,-1.11254 -0.34232,0.320925 -0.37977,0.358367 -0.55627,0.481388 -0.44931,0.326274 -1.09651,0.502782 -1.85068,0.502782 -2.04321,0 -3.15575,-1.037657 -3.15575,-2.86693 0,-2.155546 1.48694,-3.155761 4.41271,-3.155761 0.17651,0 0.28883,0 0.54022,0.01605 v -0.374412 c 0,-1.021611 -0.20324,-1.363931 -1.07509,-1.363931 -0.77558,0 -1.66881,0.374413 -2.65834,1.037658 l -1.0216,-1.722298 m 4.71759,4.075747 h -0.10694 c -1.66881,0 -2.24111,0.304879 -2.24111,1.396024 0,0.716732 0.44929,1.203468 1.05904,1.203468 0.44395,0 0.89325,-0.235345 1.25162,-0.631152 z m 0,0"
     id="path78" />
</svg>
