<?xml version="1.0" encoding="UTF-8"?>
<!-- Generator: Adobe Illustrator 28.1.0, SVG Export Plug-In . SVG Version: 6.00 Build 0)  -->
<svg width="524.4" height="418.7" version="1.1" viewBox="0 0 524.4 418.7" xml:space="preserve" xmlns="http://www.w3.org/2000/svg">
<style type="text/css">
	.st0{fill:#FFFFFF;}
</style>
<polygon class="st0" transform="translate(-94.4,-94.6)" points="353.9 141.3 302 233.2 276.1 279.2 425.8 279.2 425.8 233.2 354.8 233.2 406.6 141.3 432.5 95.3 283.2 95.3 283.2 141.3"/>
<path class="st0" d="m397.3 89.1v-42.4h59.9c11.7 0 21.2 9.5 21.2 21.2s-9.5 21.2-21.2 21.2zm-46-88.4v183.9h46v-49.6h59.9c37.1 0 67.2-30.1 67.2-67.2s-30.1-67.2-67.2-67.2z"/>
<path class="st0" d="m46 93c0-26 21.1-47.1 47.1-47.1s47.1 21.1 47.1 47.1-21.1 47.1-47.1 47.1-47.1-21.1-47.1-47.1m-46 0c0 51.4 41.7 93 93 93s93-41.7 93-93-41.7-93-93-93-93 41.6-93 93"/>
<polygon class="st0" transform="translate(-94.4,-94.6)" points="130.9 339.7 97 383.8 97.2 389.6 138.7 389.6 138.7 383.5 104.8 383.5 138.6 339.5 138.6 333.8 97.5 333.8 97.5 339.7"/>
<path class="st0" d="m80.8 244.3c12.5 0 21.3 9.3 21.3 23s-8.8 22.5-21.3 22.5-21.9-9.1-21.9-22.8 9.2-22.7 21.9-22.7m-0.8 52.1c10.2 0 17.9-4.8 22-12.6l0.2 11.3h6.6v-81.4h-6.8v36.7c-4.2-7.7-11.9-12.6-22-12.6-16.4 0-27.7 12.6-27.7 29.3s11.3 29.2 27.7 29.3"/>
<path class="st0" d="m132.9 259.7c0-5.9 2.5-15.5 13-15.5 2.8 0 4 0.6 4 0.6l2.1-5.4s-2.3-1.5-6.2-1.5c-6.9 0-10.8 4.1-13 9.2l-0.2-7.9h-6.5v55.8h6.8z"/>
<path class="st0" d="m186.9 289.9c-12.8 0-21.9-9.1-21.9-22.8s9.1-22.8 21.9-22.8 21.3 9.3 21.3 23-8.7 22.6-21.3 22.6m21.2-6.2 0.2 11.3h6.6v-55.8h-6.6l-0.2 11.5c-4.1-7.7-11.7-12.9-22-12.9-16.4 0-27.7 12.6-27.7 29.3s11.3 29.3 27.7 29.3c10.3-0.1 17.9-4.8 22-12.7"/>
<path class="st0" d="m482.1 390.9c-12.8 0-21.9-9.1-21.9-22.8s9.1-22.8 21.9-22.8 21.3 9.3 21.3 23-8.8 22.6-21.3 22.6m21.4-50.7-0.2 11.5c-4.1-7.7-11.7-12.9-22-12.9-16.4 0-27.7 12.6-27.7 29.3s11.3 29.3 27.7 29.3c10.2 0 17.9-4.8 22-12.6l0.2 11.3h6.6v-55.8z"/>
<polygon class="st0" transform="translate(-94.4,-94.6)" points="365.5 333.8 346.9 382.1 328.5 333.8 321.1 333.8 343.4 389.6 350.5 389.6 372.5 333.8"/>
<path class="st0" d="m313.5 289.9c-12.5 0-21.8-9.5-21.8-22.8s9.2-22.9 21.8-22.9 21.8 9.6 21.8 22.9-9.3 22.8-21.8 22.8m0-52.1c-16.2 0-28.5 12.6-28.5 29.3s12.3 29.3 28.5 29.3 28.4-12.6 28.4-29.3-12.2-29.3-28.4-29.3"/>
<path class="st0" d="m396.5 260.8c0-10.2 7.4-16.6 17.1-16.6s15.3 6.4 15.3 16.6v34.2h6.8v-34.5c0-14.8-8.2-22.7-20.4-22.7-9.5 0-15.6 4.7-18.8 10.4l-0.3-9h-6.5v55.8h6.8z"/>
<path class="st0" d="m421.9 338.7c-9.5 0-15.6 4.7-18.8 10.4l-0.3-9h-6.5v55.8h6.8v-34.2c0-10.2 7.4-16.6 17.1-16.6s15.3 6.4 15.3 16.6v34.2h6.8v-34.5c0-14.9-8.2-22.7-20.4-22.7"/>
<polygon class="st0" transform="translate(-94.4,-94.6)" points="544.8 326.1 551.4 326.1 559.4 309.8 552.7 309.8"/>
<rect class="st0" x="450.3" y="239.2" width="6.8" height="55.8"/>
<path class="st0" d="m101.4 390.7c-12.5 0-21.8-9.5-21.8-22.8s9.2-22.9 21.8-22.9 21.8 9.6 21.8 22.9-9.4 22.8-21.8 22.8m0-52c-16.2 0-28.5 12.6-28.5 29.3s12.3 29.3 28.5 29.3 28.4-12.6 28.4-29.3-12.3-29.3-28.4-29.3"/>
<path class="st0" d="m144.3 402.8c0 5.4-1.2 9.5-7.9 9.5-2.7 0-5-0.7-5-0.7v6s2.7 1.1 5.9 1.1c9.2 0 13.8-5.1 13.8-14.1v-64.5h-6.8z"/>
<path class="st0" d="m147.9 315.7c-2.5 0-4.6 2-4.6 4.6s2.1 4.5 4.6 4.5 4.3-2 4.3-4.5-2-4.6-4.3-4.6"/>
<path class="st0" d="m171.8 315.7c-2.5 0-4.6 2-4.6 4.6s2.1 4.5 4.6 4.5 4.4-2 4.4-4.5-1.9-4.6-4.4-4.6"/>
<rect class="st0" x="168.3" y="340" width="6.7" height="55.8"/>
<path class="st0" d="m213.1 365.6-5.1-2.2c-6.1-2.5-10.2-4.5-10.2-10.4s5-8.4 10.2-8.4c4.3 0 8.1 1.7 11.6 5.6l4.1-4c-3.9-4.9-9.7-7.5-16-7.5-9 0-16.6 5.6-16.6 14.6 0 8.1 5.9 12.1 12.6 14.9l6.5 2.7c5.5 2.3 9.3 4.9 9.3 10.6 0 6.4-5 9.6-12.1 9.6-6.4 0-10.6-2.9-13.9-6.5l-3.6 4.4s8.7 8.2 17.7 8.2c9.9 0 18.7-5.6 18.7-15.8 0-8.7-5.9-12.9-13.2-15.8"/>
<polygon class="st0" transform="translate(-94.4,-94.6)" points="298 424.9 305.1 424.9 316.7 410.7 309.9 410.7 301.6 421 293.2 410.7 286.2 410.7"/>
<path class="st0" d="m302.9 390.7c-12.5 0-21.8-9.5-21.8-22.8s9.2-22.9 21.8-22.9 21.8 9.6 21.8 22.9-9.4 22.8-21.8 22.8m0-52c-16.2 0-28.5 12.6-28.5 29.3s12.3 29.3 28.5 29.3 28.4-12.6 28.4-29.3-12.2-29.3-28.4-29.3"/>
<path class="st0" d="m358.6 284.3c0 7.5 3.5 11.4 10.9 11.4 2.1 0 5.6-0.7 7-1.5l-1.9-5.4s-1.4 0.7-4 0.7c-3.5 0-5.1-1.6-5.1-6.3v-38.3h11.2v-5.8h-11.2v-14.8h-6.8v14.8h-8.9v5.8h8.9z"/>
<path class="st0" d="m33.2 390.6c-12.5 0-21.3-9-21.3-22.5s8.8-23 21.3-23 21.8 9.2 21.8 22.8-9.2 22.7-21.8 22.7m0.8-52.1c-10.2 0-17.9 5.1-22.1 12.9l-0.2-11.5h-6.5v77.5h6.8v-32.7c4.1 7.6 11.7 12.4 22 12.4 16.4 0 27.7-12.5 27.7-29.3s-11.3-29.3-27.7-29.3"/>
<path class="st0" d="m253.7 325.2h-6.8v14.8h-8.9v5.8h8.9v39.3c0 7.5 3.5 11.4 10.9 11.4 2.1 0 5.6-0.7 7-1.5l-1.9-5.4s-1.4 0.7-4 0.7c-3.5 0-5.1-1.6-5.1-6.3v-38.3h11.2v-5.8h-11.2z"/>
<polygon class="st0" transform="translate(-94.4,-94.6)" points="367.4 413.8 360.6 413.8 352.7 430.1 359.3 430.1"/>
<polygon class="st0" transform="translate(-94.4,-94.6)" points="429.5 434.6 451.8 490.5 458.9 490.5 480.9 434.6 473.9 434.6 455.3 482.9 436.9 434.6"/>
</svg>
