<svg width="525" height="419" viewBox="0 0 525 419" fill="none" xmlns="http://www.w3.org/2000/svg">
<g clip-path="url(#clip0_78_2)">
<path d="M259.5 46.7L207.6 138.6L181.7 184.6H331.4V138.6H260.4L312.2 46.7L338.1 0.699951H188.8V46.7H259.5Z" fill="#6A2582"/>
<path d="M397.3 89.1V46.7H457.2C468.9 46.7 478.4 56.2 478.4 67.9C478.4 79.6 468.9 89.1 457.2 89.1H397.3ZM351.3 0.699976V184.6H397.3V135H457.2C494.3 135 524.4 104.9 524.4 67.8C524.4 30.7 494.3 0.599976 457.2 0.599976L351.3 0.699976Z" fill="#6A2582"/>
<path d="M46 93C46 67 67.1 45.9 93.1 45.9C119.1 45.9 140.2 67 140.2 93C140.2 119 119.1 140.1 93.1 140.1C67.1 140.1 46 119 46 93ZM0 93C0 144.4 41.7 186 93 186C144.3 186 186 144.3 186 93C186 41.7 144.3 0 93 0C41.7 0 0 41.6 0 93Z" fill="#6A2582"/>
<path d="M36.5001 245.1L2.6001 289.2L2.80009 295H44.3001V288.9H10.4001L44.2001 244.9V239.2H3.1001V245.1H36.5001Z" fill="#EA7D0B"/>
<path d="M80.8001 244.3C93.3001 244.3 102.1 253.6 102.1 267.3C102.1 281 93.3001 289.8 80.8001 289.8C68.3001 289.8 58.9001 280.7 58.9001 267C58.9001 253.3 68.1001 244.3 80.8001 244.3ZM80 296.4C90.2 296.4 97.9 291.6 102 283.8L102.2 295.1H108.8V213.7H102V250.4C97.8 242.7 90.1 237.8 80 237.8C63.6 237.8 52.3 250.4 52.3 267.1C52.3 283.8 63.6 296.3 80 296.4Z" fill="#EA7D0B"/>
<path d="M132.9 259.7C132.9 253.8 135.4 244.2 145.9 244.2C148.7 244.2 149.9 244.8 149.9 244.8L152 239.4C152 239.4 149.7 237.9 145.8 237.9C138.9 237.9 135 242 132.8 247.1L132.6 239.2H126.1V295H132.9V259.7Z" fill="#EA7D0B"/>
<path d="M186.9 289.9C174.1 289.9 165 280.8 165 267.1C165 253.4 174.1 244.3 186.9 244.3C199.7 244.3 208.2 253.6 208.2 267.3C208.2 281 199.5 289.9 186.9 289.9ZM208.1 283.7L208.3 295H214.9V239.2H208.3L208.1 250.7C204 243 196.4 237.8 186.1 237.8C169.7 237.8 158.4 250.4 158.4 267.1C158.4 283.8 169.7 296.4 186.1 296.4C196.4 296.3 204 291.6 208.1 283.7Z" fill="#EA7D0B"/>
<path d="M482.1 390.9C469.3 390.9 460.2 381.8 460.2 368.1C460.2 354.4 469.3 345.3 482.1 345.3C494.9 345.3 503.4 354.6 503.4 368.3C503.4 382 494.6 390.9 482.1 390.9ZM503.5 340.2L503.3 351.7C499.2 344 491.6 338.8 481.3 338.8C464.9 338.8 453.6 351.4 453.6 368.1C453.6 384.8 464.9 397.4 481.3 397.4C491.5 397.4 499.2 392.6 503.3 384.8L503.5 396.1H510.1V340.3L503.5 340.2Z" fill="#EA7D0B"/>
<path d="M271.1 239.2L252.5 287.5L234.1 239.2H226.7L249 295H256.1L278.1 239.2H271.1Z" fill="#EA7D0B"/>
<path d="M313.5 289.9C301 289.9 291.7 280.4 291.7 267.1C291.7 253.8 300.9 244.2 313.5 244.2C326.1 244.2 335.3 253.8 335.3 267.1C335.3 280.4 326 289.9 313.5 289.9ZM313.5 237.8C297.3 237.8 285 250.4 285 267.1C285 283.8 297.3 296.4 313.5 296.4C329.7 296.4 341.9 283.8 341.9 267.1C341.9 250.4 329.7 237.8 313.5 237.8Z" fill="#EA7D0B"/>
<path d="M396.5 260.8C396.5 250.6 403.9 244.2 413.6 244.2C423.3 244.2 428.9 250.6 428.9 260.8V295H435.7V260.5C435.7 245.7 427.5 237.8 415.3 237.8C405.8 237.8 399.7 242.5 396.5 248.2L396.2 239.2H389.7V295H396.5V260.8Z" fill="#EA7D0B"/>
<path d="M421.9 338.7C412.4 338.7 406.3 343.4 403.1 349.1L402.8 340.1H396.3V395.9H403.1V361.7C403.1 351.5 410.5 345.1 420.2 345.1C429.9 345.1 435.5 351.5 435.5 361.7V395.9H442.3V361.4C442.3 346.5 434.1 338.7 421.9 338.7Z" fill="#EA7D0B"/>
<path d="M450.4 231.5H457L465 215.2H458.3L450.4 231.5Z" fill="#EA7D0B"/>
<path d="M457.1 239.2H450.3V295H457.1V239.2Z" fill="#EA7D0B"/>
<path d="M101.4 390.7C88.8999 390.7 79.5999 381.2 79.5999 367.9C79.5999 354.6 88.7999 345 101.4 345C114 345 123.2 354.6 123.2 367.9C123.2 381.2 113.8 390.7 101.4 390.7ZM101.4 338.7C85.1999 338.7 72.8999 351.3 72.8999 368C72.8999 384.7 85.1999 397.3 101.4 397.3C117.6 397.3 129.8 384.7 129.8 368C129.8 351.3 117.5 338.7 101.4 338.7Z" fill="#EA7D0B"/>
<path d="M144.3 402.8C144.3 408.2 143.1 412.3 136.4 412.3C133.7 412.3 131.4 411.6 131.4 411.6V417.6C131.4 417.6 134.1 418.7 137.3 418.7C146.5 418.7 151.1 413.6 151.1 404.6V340.1H144.3V402.8Z" fill="#EA7D0B"/>
<path d="M147.9 315.7C145.4 315.7 143.3 317.7 143.3 320.3C143.3 322.9 145.4 324.8 147.9 324.8C150.4 324.8 152.2 322.8 152.2 320.3C152.2 317.8 150.2 315.7 147.9 315.7Z" fill="#EA7D0B"/>
<path d="M171.8 315.7C169.3 315.7 167.2 317.7 167.2 320.3C167.2 322.9 169.3 324.8 171.8 324.8C174.3 324.8 176.2 322.8 176.2 320.3C176.2 317.8 174.3 315.7 171.8 315.7Z" fill="#EA7D0B"/>
<path d="M175 340H168.3V395.8H175V340Z" fill="#EA7D0B"/>
<path d="M213.1 365.6L208 363.4C201.9 360.9 197.8 358.9 197.8 353C197.8 347.1 202.8 344.6 208 344.6C212.3 344.6 216.1 346.3 219.6 350.2L223.7 346.2C219.8 341.3 214 338.7 207.7 338.7C198.7 338.7 191.1 344.3 191.1 353.3C191.1 361.4 197 365.4 203.7 368.2L210.2 370.9C215.7 373.2 219.5 375.8 219.5 381.5C219.5 387.9 214.5 391.1 207.4 391.1C201 391.1 196.8 388.2 193.5 384.6L189.9 389C189.9 389 198.6 397.2 207.6 397.2C217.5 397.2 226.3 391.6 226.3 381.4C226.3 372.7 220.4 368.5 213.1 365.6Z" fill="#EA7D0B"/>
<path d="M203.6 330.3H210.7L222.3 316.1H215.5L207.2 326.4L198.8 316.1H191.8L203.6 330.3Z" fill="#EA7D0B"/>
<path d="M302.9 390.7C290.4 390.7 281.1 381.2 281.1 367.9C281.1 354.6 290.3 345 302.9 345C315.5 345 324.7 354.6 324.7 367.9C324.7 381.2 315.3 390.7 302.9 390.7ZM302.9 338.7C286.7 338.7 274.4 351.3 274.4 368C274.4 384.7 286.7 397.3 302.9 397.3C319.1 397.3 331.3 384.7 331.3 368C331.3 351.3 319.1 338.7 302.9 338.7Z" fill="#EA7D0B"/>
<path d="M358.6 284.3C358.6 291.8 362.1 295.7 369.5 295.7C371.6 295.7 375.1 295 376.5 294.2L374.6 288.8C374.6 288.8 373.2 289.5 370.6 289.5C367.1 289.5 365.5 287.9 365.5 283.2V244.9H376.7V239.1H365.5V224.3H358.7V239.1H349.8V244.9H358.7L358.6 284.3Z" fill="#EA7D0B"/>
<path d="M33.2 390.6C20.7 390.6 11.9 381.6 11.9 368.1C11.9 354.6 20.7 345.1 33.2 345.1C45.7 345.1 55 354.3 55 367.9C55 381.5 45.8 390.6 33.2 390.6ZM34 338.5C23.8 338.5 16.1 343.6 11.9 351.4L11.7 339.9H5.19995V417.4H12V384.7C16.1 392.3 23.7 397.1 34 397.1C50.4 397.1 61.7 384.6 61.7 367.8C61.7 351 50.4 338.5 34 338.5Z" fill="#EA7D0B"/>
<path d="M253.7 325.2H246.9V340H238V345.8H246.9V385.1C246.9 392.6 250.4 396.5 257.8 396.5C259.9 396.5 263.4 395.8 264.8 395L262.9 389.6C262.9 389.6 261.5 390.3 258.9 390.3C255.4 390.3 253.8 388.7 253.8 384V345.7H265V339.9H253.8L253.7 325.2Z" fill="#EA7D0B"/>
<path d="M273 319.2H266.2L258.3 335.5H264.9L273 319.2Z" fill="#EA7D0B"/>
<path d="M335.1 340L357.4 395.9H364.5L386.5 340H379.5L360.9 388.3L342.5 340H335.1Z" fill="#EA7D0B"/>
</g>
<defs>
<clipPath id="clip0_78_2">
<rect width="524.4" height="418.7" fill="white"/>
</clipPath>
</defs>
</svg>
