<svg xmlns="http://www.w3.org/2000/svg" id="uuid-47129d4c-12a1-47ba-80de-35e10cc5f873" data-name="Layer 1" width="296.3333mm" height="234.0138mm" viewBox="0 0 840 663.3463"><defs><style> .uuid-9336012a-8367-4c8c-bff2-7691b4332846 { fill: #0095da; } .uuid-9336012a-8367-4c8c-bff2-7691b4332846, .uuid-3f5d64c4-c4c1-4fed-a7ea-81536a63a6c1 { stroke-width: 0px; } .uuid-3f5d64c4-c4c1-4fed-a7ea-81536a63a6c1 { fill: #ef4123; } </style></defs><g><path class="uuid-3f5d64c4-c4c1-4fed-a7ea-81536a63a6c1" d="m155.39,528.9163L416.48,79.8963c10.85-18.16,36.83-18.41,46.92,0l188.94,336.01c9.08,17.66,5.55,43.14-25.98,44.14l-152.36-.25,39.86,69.12h126.13c55.25-.5,119.32-68.87,73.66-149.84L519.91,44.3263c-33.3-55.5-121.09-62.06-158.67-1.51L74.42,528.9163h80.97Z"></path><polygon class="uuid-3f5d64c4-c4c1-4fed-a7ea-81536a63a6c1" points="268.15 528.9163 440.2 230.9963 515.12 363.1863 474 431.5463 629.14 431.5463 440.2 97.8063 189.45 528.9163 268.15 528.9163"></polygon><polygon class="uuid-3f5d64c4-c4c1-4fed-a7ea-81536a63a6c1" points="384.19 529.4263 336.77 445.9263 384.45 363.4363 480.81 363.4363 432.37 445.9263 480.81 529.4263 384.19 529.4263"></polygon></g><g><polygon class="uuid-9336012a-8367-4c8c-bff2-7691b4332846" points="80.98 654.7963 141.77 551.8763 60.8 551.8763 0 654.7963 80.98 654.7963"></polygon><polygon class="uuid-9336012a-8367-4c8c-bff2-7691b4332846" points="193.74 654.7963 254.53 551.8763 175.83 551.8763 115.03 654.7963 193.74 654.7963"></polygon></g><path class="uuid-9336012a-8367-4c8c-bff2-7691b4332846" d="m260.13,654.7563c-3.08,0-3.25,0-6.17.17l-.34-.39c.11-3.53.17-6.28.17-12.84,0-8.69,0-17.61-.5-26.13l.28-.39c.9,0,5.1-.11,6.11-.11l3.7-.11c3.7,0,6.56,0,9.25.84,6.23,2.02,7.85,7.18,7.85,11.04,0,2.24-.56,4.43-1.68,6.28-3.25,5.44-9.53,6.62-16.21,6.62-1.01,0-1.74-.05-2.52-.05.06,6.06.06,7.85.39,14.69l-.33.38Zm5.61-19.85c1.51-.11,5.55-.51,7.51-3.98.67-1.18.95-2.63.95-4.04,0-1.12-.17-2.36-.67-3.48-1.85-3.87-6.11-3.93-8.47-3.93-2.8,0-3.53.11-5.05.23,0,2.58-.06,5.21-.06,7.85,0,2.52.06,5.05.06,7.57,1.92-.06,4.21-.06,5.73-.22Z"></path><path class="uuid-9336012a-8367-4c8c-bff2-7691b4332846" d="m285.15,635.3362c0-12.56,6.73-20.92,18.34-20.92,11.1,0,18.11,7.8,18.11,20.81,0,13.41-7.23,20.47-18.28,20.47-11.61-.0599-18.17-7.91-18.17-20.36Zm29.78-.39c0-2.07-.28-7.57-2.41-11.05-2.92-4.77-7.68-4.82-9.03-4.82-5.16,0-7.85,2.86-9.03,4.77-2.13,3.31-2.52,8.58-2.52,11.1,0,2.69.39,7.46,2.3,10.77,1.91,3.25,5.05,5.27,9.2,5.27,8.23.0499,11.49-7.5101,11.49-16.04Z"></path><path class="uuid-9336012a-8367-4c8c-bff2-7691b4332846" d="m327.01,654.3263v-1.74c0-.51,0-1.52-.06-2.58l.39-.28c.9.23,1.68.45,3.08.45.84,0,3.37,0,4.54-2.63.45-1.07.62-1.62.62-10.37,0-7.18-.11-14.36-.45-21.48l.34-.39c2.36-.05,3.31-.05,6.28-.17l.28.39c-.28,11.89-.28,12.51-.23,17.61v5.05c.06.84.06,2.86.06,5.05,0,4.6-.28,12-10.43,12-2.02,0-3.14-.22-4.15-.45l-.27-.46Z"></path><path class="uuid-9336012a-8367-4c8c-bff2-7691b4332846" d="m363.34,615.5163c-.17,3.76-.28,8.19-.28,17.83,0,10.77.11,15.37.45,21.14l-.34.39c-2.47.05-3.25.05-6.23.17l-.34-.39c.11-3.42.22-6.39.22-13.62,0-8.47,0-16.88-.39-25.29l.28-.45c2.47,0,3.36,0,6.23-.17l.4.39Z"></path><path class="uuid-9336012a-8367-4c8c-bff2-7691b4332846" d="m391.06,632.4463c4.09,1.79,9.53,4.15,9.53,11.33,0,6.28-4.65,11.94-14.41,11.94-5.94,0-9.76-1.8-11.1-2.47l-.22-.39c.22-1.96.28-3.03.45-5.16l.56-.23c1.4.95,4.65,3.31,9.87,3.31,5.78,0,8.19-2.97,8.19-6.34,0-3.92-3.25-5.44-6.9-6.84l-2.8-1.23c-3.98-1.85-9.31-4.26-9.31-11.1,0-2.08.56-4.21,1.74-5.89,2.58-3.7,7.23-4.94,11.78-4.94,4.43,0,7.12.84,10.09,1.8l.28.45c-.22,2.13-.28,2.92-.45,4.93l-.45.23c-2.41-1.24-5.05-2.58-9.25-2.58-4.66,0-7.57,2.19-7.57,5.49,0,2.53,1.68,3.7,2.86,4.43.73.45.95.56,4.32,2.02l2.79,1.24Z"></path><path class="uuid-9336012a-8367-4c8c-bff2-7691b4332846" d="m434.34,620.0163c-4.71-.11-5.5-.11-10.32-.11-.11,5.61-.11,6.5-.11,11.5,0,14.08.22,19.63.39,22.99l-.34.39c-3.2,0-3.37,0-6.45.17l-.28-.39c.28-7.85.34-15.7.34-23.55,0-5.72-.11-8.69-.17-11.1-4.88.06-5.44.06-10.43.23l-.34-.39c.11-1.96.11-2.19.23-4.15l.28-.39c4.04,0,10.49,0,14.53-.05,4.32,0,8.64-.06,12.96-.11l.28.39c-.17,1.96-.23,2.58-.23,4.21l-.3401.36Z"></path><path class="uuid-9336012a-8367-4c8c-bff2-7691b4332846" d="m436.78,635.3463c0-12.56,6.73-20.92,18.34-20.92,11.11,0,18.11,7.8,18.11,20.81,0,13.41-7.23,20.47-18.28,20.47-11.61-.06-18.17-7.91-18.17-20.36Zm29.78-.39c0-2.07-.28-7.57-2.41-11.05-2.91-4.77-7.68-4.82-9.03-4.82-5.16,0-7.85,2.86-9.03,4.77-2.13,3.31-2.52,8.58-2.52,11.1,0,2.69.39,7.46,2.3,10.77,1.91,3.25,5.05,5.27,9.2,5.27,8.2401.0499,11.4901-7.5201,11.4901-16.04Z"></path><path class="uuid-9336012a-8367-4c8c-bff2-7691b4332846" d="m497.83,654.7863c-3.81,0-4.09.05-8.13.17l-.39-.39c-1.8-6.28-3.65-12.62-5.55-18.9-.95-3.2-5.89-19.12-6.17-20.08l.28-.39c3.14,0,3.64-.05,6.45-.17l.39.39c1.01,3.87,1.34,5.27,4.71,17.72l4.88,17.67,4.99-17.61c1.63-5.83,3.25-11.72,4.82-17.61l.34-.39c2.69,0,2.97,0,5.61-.17l.28.39c-.9,2.8-5.21,16.71-6.17,19.85-1.79,5.61-3.7,11.22-5.33,16.88-.23.73-.45,1.46-.67,2.24l-.3401.4001Z"></path><path class="uuid-9336012a-8367-4c8c-bff2-7691b4332846" d="m550.3,654.4863l-.28.39c-3.31,0-3.53,0-6.9.17l-.45-.39c-3.31-5.89-6.62-11.78-9.98-17.67l-8.86-15.81.56,19.24c.05,2.36.17,4.66.22,7.01.17,4.65.17,4.77.28,7.07l-.34.39c-2.47,0-2.69,0-5.39.17l-.34-.39c.22-5.33.28-10.71.28-16.04,0-7.63-.06-15.31-.34-22.94l.28-.39c3.48-.05,4.04-.05,7.24-.17l.56.39c3.81,6.84,7.74,13.96,11.44,20.47l6.96,12.28-.45-18.62c-.23-8.8-.28-10.09-.51-13.96l.34-.39c2.52,0,3.08-.05,5.33-.17l.34.39c-.11,6.84-.23,13.85-.23,20.75,0,5.27.06,10.6.17,15.87l.07,2.35Z"></path><path class="uuid-9336012a-8367-4c8c-bff2-7691b4332846" d="m579.35,616.3563c1.85,6.17,3.98,13.12,5.67,18.45,1.74,5.38,4.54,14.02,6.22,19.4l-.22.45c-2.92.06-4.15.11-6.51.23l-.39-.39c-1.4-5.27-1.85-6.79-3.31-11.83-2.24,0-4.43-.06-6.67-.06-2.47,0-5.05.06-7.29.06-1.62,5.27-1.96,6.62-3.31,11.61l-.39.39c-2.41,0-2.97,0-5.78.17l-.22-.39c.17-.62.39-1.18.62-1.74,2.13-6.06,4.21-12.12,6.22-18.17,3.37-9.93,4.6-13.57,6.23-18.95l.45-.39c3.92-.06,4.43-.06,8.02-.22l.39.39.27.99Zm-11.11,21.81c1.79,0,3.59.06,5.38.06,1.91,0,3.93-.06,5.89-.06l-5.38-18.96-5.89,18.96Z"></path><path class="uuid-9336012a-8367-4c8c-bff2-7691b4332846" d="m641.84,654.9563c-3.81,0-4.09.06-8.13.17l-.39-.39c-1.8-6.28-3.65-12.62-5.55-18.9-.95-3.2-5.89-19.12-6.17-20.08l.28-.39c3.14,0,3.64-.05,6.45-.17l.39.39c1.01,3.87,1.34,5.27,4.71,17.72l4.88,17.67,4.99-17.61c1.63-5.83,3.25-11.72,4.82-17.61l.34-.39c2.69,0,2.97,0,5.61-.17l.28.39c-.9,2.8-5.21,16.71-6.17,19.85-1.79,5.61-3.7,11.22-5.33,16.88-.23.73-.45,1.46-.67,2.24l-.3401.4001Z"></path><path class="uuid-9336012a-8367-4c8c-bff2-7691b4332846" d="m685.58,654.9363c-6.95-.05-14.86-.05-21.82-.05-.56,0-2.8,0-5.05.05l-.34-.5c4.26-7.63,8.36-15.25,12.45-22.94l6.17-11.61c-5.66,0-8.69,0-16.94.11l-.28-.39c.23-1.85.28-2.35.39-4.04l.34-.39c5.72.06,11.5.11,17.22.11,3.93,0,6.17-.05,8.08-.11l.28.56c-2.02,3.48-3.93,6.73-9.42,16.94-3.2,5.89-6.34,11.78-9.42,17.66,9.09,0,10.88-.05,18.85-.28l.34.34c-.23,1.51-.28,2.24-.45,4.26l-.4.28Z"></path><path class="uuid-9336012a-8367-4c8c-bff2-7691b4332846" d="m701.06,654.7563c-3.09,0-3.25,0-6.17.17l-.34-.39c.11-3.53.17-6.28.17-12.84,0-8.69,0-17.61-.51-26.13l.28-.39c.9,0,5.1-.11,6.11-.11l3.7-.11c3.7,0,6.56,0,9.26.84,6.22,2.02,7.85,7.18,7.85,11.04,0,2.24-.56,4.43-1.68,6.28-3.25,5.44-9.54,6.62-16.21,6.62-1.01,0-1.74-.05-2.53-.05.06,6.06.06,7.85.39,14.69l-.3199.38Zm5.61-19.85c1.51-.11,5.55-.51,7.51-3.98.67-1.18.95-2.63.95-4.04,0-1.12-.17-2.36-.67-3.48-1.85-3.87-6.11-3.93-8.47-3.93-2.8,0-3.53.11-5.05.23,0,2.58-.05,5.21-.05,7.85,0,2.52.05,5.05.05,7.57,1.9199-.06,4.2199-.06,5.7299-.22Z"></path><path class="uuid-9336012a-8367-4c8c-bff2-7691b4332846" d="m726.5,648.6563c-1.91,4.6-4.15,10.99-5.21,14.19l-.39.39c-1.85,0-1.96,0-3.98.11l-.22-.34c1.57-6.45,2.3-9.54,2.97-14.19l.34-.39c2.69-.05,3.25-.05,6.28-.22l.21.45Z"></path><path class="uuid-9336012a-8367-4c8c-bff2-7691b4332846" d="m776.75,643.1863c0,6.95.05,7.57.34,11.22l-.28.28c-2.63.06-3.09.11-5.66.22l-.23-.34.06-2.02c-1.06.84-3.59,2.86-7.85,2.86-5.61,0-9.54-3.81-9.54-9.37,0-7.51,6.28-9.93,16.38-11.1l.95-.11c0-1.51,0-2.58-.51-3.48-.56-1.01-1.85-2.07-4.65-2.07-3.64,0-6.17,1.12-8.52,2.13l-.45-.28c.11-2.58.11-2.92.17-4.1l.34-.34c3.14-1.12,6.39-1.85,9.7-1.85,4.15,0,8.19,1.4,9.36,5.78.39,1.57.39,4.65.39,7.01v5.56h0Zm-6.28-4.09c-5.67.84-10.94,1.63-10.94,6.62,0,.28,0,5.1,5.33,5.1,3.48,0,5.5-1.91,6.11-2.47v-9.36l-.5.11Z"></path><path class="uuid-9336012a-8367-4c8c-bff2-7691b4332846" d="m790.81,648.4863c-.05,2.64-.05,3.48,0,5.78l-.39.5c-2.92.11-3.03.11-6.22.28l-.39-.45c.06-.95.06-1.96.06-2.97,0-.95,0-1.91-.06-2.86l.45-.5c2.97-.05,3.53-.05,6.06-.23l.49.4499Z"></path><path class="uuid-9336012a-8367-4c8c-bff2-7691b4332846" d="m819.79,637.6763c2.24.73,7.35,2.47,7.35,8.41,0,2.24-.84,4.77-3.14,6.62-2.97,2.53-6.95,2.69-8.97,2.69-3.03,0-5.55-.56-7.68-1.4-.28-.11-.56-.23-.84-.34l-.28-.51c.23-2.19.23-2.47.34-4.71l.56-.17c1.01.79,3.48,2.69,7.8,2.69,4.43,0,6.06-2.47,6.06-4.21,0-2.58-2.41-3.42-5.83-4.54l-1.79-.62c-2.3-.73-7.35-2.36-7.35-8.13s5.05-8.64,11.33-8.64c4.15,0,7.07,1.18,8.07,1.57l.28.39c-.23,2.08-.28,2.3-.45,4.43l-.51.23c-1.4-.9-3.59-2.24-7.23-2.24-.79,0-1.57.06-2.41.28-1.68.45-3.09,1.63-3.09,3.37,0,2.41,2.3,3.14,5.78,4.21l1.9999.6201Z"></path><path class="uuid-9336012a-8367-4c8c-bff2-7691b4332846" d="m840,648.4863c-.05,2.64-.05,3.48,0,5.78l-.39.5c-2.92.11-3.03.11-6.22.28l-.39-.45c.06-.95.06-1.96.06-2.97,0-.95,0-1.91-.06-2.86l.45-.5c2.97-.05,3.53-.05,6.06-.23l.49.4499Z"></path><path class="uuid-9336012a-8367-4c8c-bff2-7691b4332846" d="m384.7,611.9063c2.02,0,5.3-.25,7.06-.25l.51-.25c2.02-4.04,2.27-4.54,4.29-8.32l-.25-.5h-4.03l-.51.25c-1.26,2.52-1.77,3.53-3.03,5.8-1.01-2.27-1.51-3.03-2.77-5.8l-.25-.25c-2.53.25-3.03.25-5.05.25l-.25.5c1.01,2.02,2.77,5.3,4.04,8.32l.24.25Z"></path><path class="uuid-9336012a-8367-4c8c-bff2-7691b4332846" d="m417.49,611.9063c1.77,0,4.79-.25,6.81-.25l.25-.25c2.02-4.04,2.27-4.54,4.29-8.32l-.25-.5h-4.03l-.25.25c-1.26,2.52-1.77,3.53-3.03,5.8-1.26-2.27-1.51-3.03-2.77-5.8l-.25-.25c-2.27.25-2.77.25-5.04.25l-.25.5c1.26,2.02,2.77,5.3,4.04,8.32l.48.25Z"></path></svg>